<svg width="240" height="240" viewBox="0 0 240 240" fill="none" xmlns="http://www.w3.org/2000/svg">
<path d="M181.518 221.648C181.886 221.373 183.531 220.584 184.19 220.148C183.751 221.186 180.192 222.656 181.518 221.648ZM189.177 146.854C189.19 147.268 189.2 147.682 189.204 148.1C189.69 147.108 190.071 145.677 190.522 144.743C190.596 144.591 190.883 145.147 191.024 144.773C191.163 144.399 190.565 144.285 190.673 143.716C190.808 143.087 192.005 140.34 192.218 139.322C193.073 135.543 193.325 131.63 193.877 127.775C193.963 131.841 194.813 127.834 194.673 126.677C194.647 126.486 194.018 126.412 193.887 124.699C193.839 124.164 193.841 123.461 193.913 122.518C194.054 120.127 195.794 122.331 194.763 118.278C193.787 121.438 193.76 118.378 193.45 115.971C193.418 115.559 193.132 112.167 192.767 110.69C192.651 110.182 191.9 109.526 191.734 108.867C191.619 108.412 191.862 107.994 191.676 107.315C190.809 104.155 189.775 101.076 188.63 97.9394C190.82 99.2054 188.674 96.2593 188.665 96.0947C188.749 95.1815 190.263 98.5234 189.959 97.0856C189.147 95.2212 188.258 93.383 187.296 91.5777C187.872 93.1487 185.123 90.2017 185.214 89.3562C184.272 90.275 181.46 80.7722 180.034 79.8685C179.761 79.6892 180.447 81.6701 177.865 77.7989C177.579 77.3823 178.027 77.2701 177.83 77.087C177.758 77.0195 177.109 77.0258 176.605 76.7579C176.289 76.5894 176.028 76.3128 175.993 75.8305C175.941 75.3832 178.224 76.5906 174.457 72.8829C174.901 75.2775 168.937 68.1774 167.756 66.9076C167.894 67.2687 168.029 67.6303 168.16 67.9922C167.228 66.5093 166.685 66.6744 166.417 66.4126C165.321 65.3563 163.963 63.7071 162.789 62.9114C161.42 61.9878 160.94 62.677 159.546 61.3567C159.819 61.7588 160.088 62.1631 160.353 62.5697C159.301 61.7973 158.239 61.0611 157.154 60.3546C160.304 60.9797 156.625 59.957 156.41 59.8788C156.061 59.7224 156.765 59.6013 156.184 59.3308C156.121 59.307 155.992 59.7237 155.115 59.2879C153.283 58.3979 153.814 58.0854 153.052 57.6984C152.981 57.6689 153.049 58.1245 151.697 57.5691C147.394 55.9144 151.841 57.285 152.031 57.34C152.273 57.3963 151.539 55.158 154.881 57.5378C153.766 56.7371 153.963 56.0441 153.833 55.9558C153.717 55.8691 151.532 54.9357 151.403 54.9164C150.249 54.6663 150.977 55.5304 150.735 55.5187C150.551 55.4974 148.195 53.8175 147.071 54.9931C146.313 53.2672 148.22 54.0587 150.381 54.7736C150.801 54.6412 148.604 53.4273 148.478 53.3929C145.481 52.2675 146.761 53.9535 145.877 54.3912C145.421 54.626 144.489 53.5095 145.254 54.8267C142.608 54.0701 144.366 54.0368 144.226 53.8968C144.005 53.6915 142.996 53.6898 142.892 53.6222C142.737 53.5185 143.428 53.3549 142.787 53.0436C142.676 52.993 141.446 53.2714 142.75 53.9349C140.925 53.3355 140.959 53.8955 140.57 52.7371C138.859 54.3377 139.892 51.4024 139.389 51.1822C138.061 50.6201 138.183 52.2106 138.096 52.2672C137.625 52.5626 135.14 51.8782 133.727 51.7708C133.361 51.7376 133.057 51.7269 132.858 51.751C133.003 51.4488 133.344 51.3407 133.767 51.3411C134.699 51.3235 136.072 52.0273 136.504 51.9433C138.555 51.5296 133.844 51.0161 135.431 49.8421C134.889 50.0914 134.357 50.3498 133.835 50.617C133.712 50.6711 133.589 50.7255 133.466 50.7801C132.278 49.7942 134.133 49.5231 130.636 49.6203C130.028 50.3468 133.097 49.6604 132.447 50.225C132.073 50.5458 130.064 50.5007 130.022 50.691C129.967 50.9096 131.785 50.7509 131.478 51.0808C130.835 51.7408 124.275 50.8426 129.317 50.5911C127.926 50.548 127.207 49.0467 125.969 49.4994C125.182 49.8107 129.598 51.8256 122.948 51.5041C122.784 50.7971 125.62 51.258 125.684 51.2148C125.788 51.1373 125.281 49.5517 125.189 49.474C124.854 49.1623 117.966 50.2575 116.41 49.6597C117.078 50.49 111.151 50.3653 110.551 50.7757C110.393 50.8757 111.102 51.3422 110.93 51.4264C109.859 51.9218 106.68 51.4266 105.258 51.6863C103.685 51.9648 103.983 52.407 103.895 52.4222C103.204 52.539 103.684 52.1027 103.264 52.1924C102.621 52.3053 98.2774 53.2868 98.0836 53.432C98.0272 53.4692 98.8656 53.819 97.9616 54.1681C97.8085 54.235 97.7274 53.5452 95.0638 54.6206C91.8864 55.9387 97.572 54.7244 96.4002 55.7948C94.0298 55.4696 94.3806 56.3937 93.7986 56.4938C93.5992 56.5278 91.8905 56.2047 90.3474 56.8096C91.4192 56.2872 92.5076 55.7815 93.6079 55.2942C92.4386 55.5045 90.3399 56.4112 89.3833 56.5929C88.9147 56.6805 89.0448 55.908 88.0886 56.2857C87.8882 56.3746 87.6633 58.2024 89.909 56.5928C90.3081 57.0745 88.9856 57.1439 88.4962 57.5098C88.4211 57.5663 88.4482 58.6061 87.5356 58.3066C87.3254 58.2456 88.048 54.7998 84.1691 58.6739C84.0475 58.7992 84.7054 58.9071 84.5898 59.0381C84.5101 59.1248 83.2832 59.5047 83.1768 59.611C83.0683 59.7195 83.7888 59.8271 83.664 59.9675C83.0354 60.6841 81.3327 59.7537 83.0386 59.1079C82.4041 59.1815 81.77 59.2617 81.1364 59.3485C82.2243 60.1324 80.4168 60.0506 79.6817 60.4616C75.0429 63.1173 78.5835 62.1486 77.9564 62.9182C76.993 64.1672 76.9841 61.8665 75.4032 63.4596C75.2727 63.618 77.8903 63.0146 73.3447 65.1948C73.9538 64.7755 74.5737 64.3622 75.1992 63.9577C74.2448 63.191 72.9352 65.4165 72.8144 65.5218C71.2639 66.7153 72.1109 65.6398 70.0769 67.7523C69.8989 67.9417 69.2825 68.0366 68.9267 68.4715C67.4544 70.2606 71.5355 67.0121 71.9448 67.3441C72.0818 67.463 67.558 70.672 67.3896 70.7407C66.4564 70.863 69.2394 69.0427 68.3898 68.9613C67.9784 68.8763 62.2609 74.2631 61.158 75.2658C59.7419 76.3381 58.0722 75.9286 59.3514 77.0855C57.7522 76.3282 58.3267 77.4339 58.175 77.5932C56.9093 78.9198 56.5206 79.3758 56.0002 80.1097C55.7505 80.4676 55.474 80.8949 55.0845 81.5377C54.8213 81.9716 54.158 82.033 54.1289 82.2318C54.1148 82.3473 54.6774 82.4954 54.5398 83.0091C54.307 83.6943 51.7232 87.013 51.3371 87.1888C50.9142 87.3241 52.0688 85.5462 51.4539 85.6364C50.6565 86.9665 50.1167 88.3256 49.4383 89.7251C49.1587 90.3036 48.9704 89.8605 48.8535 90.113C48.7915 90.2151 48.2513 92.402 48.4159 92.3627C48.6738 92.2086 51.3651 85.97 51.1608 87.8686C51.112 88.2198 49.8604 88.9705 50.8329 89.2159C48.6158 93.5253 47.0317 98.1968 46.0993 103.2C45.8761 104.401 45.6928 105.594 45.5477 106.779C45.4111 105.606 45.4601 104.378 45.6288 103.127C45.9809 100.502 46.8459 97.9763 47.5285 95.5705C47.6612 95.0739 48.293 93.4955 47.7606 93.5276C46.6307 96.3579 45.9741 100.048 45.266 103.071C45.2349 103.201 45.2037 103.329 45.1721 103.456C45.1469 103.556 44.7578 103.117 44.6331 103.488C44.3862 104.193 44.8587 106.56 44.6528 106.922C44.601 106.982 44.1348 105.624 43.7247 105.98C42.6691 106.917 44.7736 107.386 44.6941 108.246C44.5887 108.894 43.5034 113.479 44.265 114.604C44.9989 115.773 44.5578 111.246 45.1633 111.585C45.728 114.606 45.372 117.707 45.8963 120.575C45.9061 120.624 46.2793 120.125 46.4419 120.748C46.7313 121.834 46.1667 122.232 46.171 122.794C46.1685 123.399 46.7244 125.442 46.5765 125.772C46.5556 125.815 45.839 125.538 45.8065 125.476C45.3361 124.618 46.0711 124.125 46.0629 124.042C46.0266 123.728 45.6563 123.485 45.6177 123.198C45.5554 122.725 45.7901 122.417 45.7055 121.799C45.6496 121.372 45.1726 121.874 45.1269 121.457C45.1052 121.292 46.115 119.512 44.8167 119.527C44.0504 119.509 46.837 133.071 48.0503 134.232C47.7585 133.051 47.4998 131.87 47.2765 130.695C47.6613 133.125 49.7581 135.456 48.4186 136.232C51.8757 144.758 57.1176 152.94 63.566 160.324C64.6436 161.707 63.2281 161.684 65.4503 163.601C65.1631 162.838 64.8862 162.075 64.62 161.312C65.4035 162.578 69.7946 167.538 70.775 168.08C70.8977 168.152 71.663 167.621 72.9433 168.646C74.0885 169.555 73.8143 170.221 74.3275 170.828C74.7607 171.336 75.4485 171.666 75.5764 171.82C75.6734 171.938 75.4475 172.3 75.6832 172.586C76.4338 173.482 76.4612 171.979 76.4875 173.747C76.2364 173.615 75.9855 173.482 75.7348 173.348C76.6908 174.37 77.821 176.023 76.0004 174.996C75.6879 174.818 76.1852 174.688 75.9772 174.525C67.9539 167.971 73.7369 173.944 77.0453 175.657C77.3951 176.734 81.8848 179.5 81.9723 179.671C82.0733 179.951 81.0458 179.841 81.7821 180.853C81.9073 181.11 88.0679 184.581 85.4789 183.919C84.9423 183.8 82.1644 181.795 81.4878 181.348C82.3477 183.532 87.2274 184.371 87.6303 184.638C89.2876 185.86 83.6477 183.574 87.5511 186.077C90.5692 187.948 88.1191 185.539 89.4904 185.894C90.2545 186.109 93.2992 188.809 93.7988 187.646C95.0696 188.137 94.0577 188.367 94.1851 188.484C94.3132 188.604 96.8675 189.425 97.5423 190.01C97.6236 190.083 97.0451 190.535 97.1208 190.628C97.275 190.809 99.667 191.714 99.7918 191.698C99.867 191.688 99.5357 190.927 99.8227 190.898C100.158 190.876 102.348 191.905 102.529 191.791C102.8 191.642 99.9757 190.677 100.69 190.273C101.893 190.956 104.132 191.349 105.14 191.151C104.887 191.221 103.653 190.792 103.242 190.576C103.804 189.799 106.386 190.735 105.239 191.116C105.944 190.939 105.632 190.605 106.078 190.361C106.191 190.3 106.995 190.551 107.205 190.447C107.235 190.424 106.53 189.813 106.762 189.689C107.182 189.478 109.535 190.297 109.691 190.426C110.158 190.835 108.137 190.557 107.835 190.87C107.791 190.925 109.218 192.178 109.223 192.247C109.103 192.988 107.387 191.904 107.388 192.596C107.813 192.879 108.239 193.158 108.663 193.431C106.645 193.557 103.351 192.008 102.178 192.351C105.019 193.227 107.849 194.118 107.317 195.76C107.095 196.455 105.741 196.469 105.726 196.656C105.698 197.348 107.622 197.198 107.666 197.243C107.705 197.296 107.716 197.341 107.705 197.377C107.705 197.377 107.705 197.377 107.705 197.377C107.705 197.377 107.705 197.377 107.705 197.377C107.705 197.377 107.705 197.377 107.705 197.377C107.598 197.76 105.077 197.253 104.887 197.365C104.573 197.59 105.257 199.18 105.168 199.45C105.115 199.499 103.213 199.173 103.655 199.85C104.108 200.544 105.691 201.068 105.728 201.131C105.945 201.526 103.067 200.868 102.915 200.99C102.839 201.062 104.174 202.101 104.168 202.263C104.156 202.429 102.886 202.369 102.25 202.675C101.778 202.904 102.691 203.528 102.494 203.521C102.336 203.518 99.6679 202.534 99.5041 202.53C99.2703 202.544 99.7433 203.202 99.6112 203.271C99.4222 203.371 98.6012 202.879 98.6548 203.076C98.6912 203.239 101.56 205.943 101.435 206.319C101.145 206.971 98.0083 204.101 100.51 207.959C100.53 207.986 101.458 208.104 101.475 208.127C101.847 208.792 98.7998 208.575 102.254 209.611C95.6282 208.226 101.1 210.339 99.7821 211.126C99.2447 211.427 96.7142 210.674 96.672 210.722C96.7076 211.354 97.6614 211.242 97.832 211.606C97.9302 211.817 95.4682 211.516 95.8287 212.077C96.0195 212.379 98.4398 213.215 98.5299 213.282C99.3763 213.985 98.0479 213.936 98.1712 214.263C98.2542 214.486 99.7455 215.028 99.7737 215.068C99.823 215.161 97.5292 215.114 97.0375 215.193C96.6521 215.259 97.7418 215.987 97.494 215.986C95.9736 215.978 93.5628 213.63 95.6852 216.406C95.8159 216.577 96.8834 216.929 96.9065 216.96C97.3836 217.686 95.4265 217.006 94.9259 217.258C94.065 217.704 97.0322 218.411 94.5029 217.984C96.0911 219.107 97.1238 219.471 99.2824 220.064C93.3221 218.368 90.5675 219.237 97.1439 221.659C95.0366 220.873 94.9243 221.946 94.2919 221.73C93.8981 221.603 91.2669 219.409 91.7901 222.166C91.8587 222.516 93.8492 222.893 93.0545 223.231C88.6421 221.301 92.819 223.562 92.8005 223.631C92.1607 225.01 81.8579 219.193 80.1303 218.307C78.012 217.412 75.6911 217.346 75.2588 217.101C73.8238 216.283 75.2818 216.482 75.0597 216.123C74.8294 215.783 70.2757 214.283 70.1155 214.093C69.4662 213.415 70.5848 213.348 70.5212 213.27C69.758 212.366 64.2784 209.35 62.9646 208.186C62.7586 208.563 65.6362 210.604 63.446 209.902C60.9056 209.074 61.8552 207.461 61.8485 207.361C52.4025 200.524 43.7571 192.648 36.1084 183.722C35.4421 184.5 41.1405 189.728 41.1995 189.901C41.2949 191.261 32.6083 181.493 31.9991 179.902C32.591 180.991 33.1984 182.074 33.8204 183.15C31.6211 182.252 29.8717 177.698 27.7329 175.508C27.0326 174.798 27.7901 176.589 27.7467 176.574C26.7475 175.927 25.9919 174.269 27.2246 175.026C25.2243 173.124 25.9474 173.095 24.8338 171.339C24.7766 171.247 24.899 172.247 23.8414 170.961C23.3334 170.369 21.1544 166.832 20.5525 166.536C20.2897 166.416 19.9195 169.147 21.316 168.592C23.1126 172.841 22.6479 169.463 23.5611 170.965C23.7095 171.186 22.6428 171.159 25.4513 174.595C23.7315 174.773 21.8417 169.842 21.2556 169.182C19.9609 167.833 23.3361 174.627 25.1111 175.044C23.7981 175.186 25.2783 175.577 26.202 176.949C27.2201 178.449 26.4801 178.015 27.0594 178.808C28.66 180.966 28.6373 179.568 29.4031 181.773C29.8836 178.663 31.9475 184.525 32.641 186.227C30.7419 184.163 28.8953 182.034 27.1075 179.838C27.1085 180.041 27.11 180.244 27.1119 180.447C26.6759 179.84 26.2445 179.228 25.8177 178.613C25.981 178.641 26.1443 178.669 26.3075 178.696C23.4363 176.021 23.6221 174.714 23.4492 174.458C21.253 171.047 18.7954 167.025 16.8346 163.358C16.5534 162.802 16.0407 163.564 14.5205 159.201C14.0512 157.805 15.1658 158.791 14.3799 157.341C12.084 156.139 13.2437 155.628 12.9944 155.07C12.2785 153.454 11.512 152.597 11.444 152.446C10.5417 150.437 9.46298 147.381 8.64532 145.079C8.6249 145.037 8.57267 146.402 8.20516 144.846C8.06303 144.279 8.50485 138.956 6.91566 134.883C7.03466 136.023 7.17208 137.159 7.32746 138.293C7.06616 137 4.73712 127.855 4.65394 130.209C4.56037 131.691 6.57208 134.789 5.43353 135.444C4.69183 132.394 2.25224 114.933 2.90586 113.504C2.94458 113.315 3.37106 114.47 3.41984 114.207C3.43681 114.01 3.35428 109.985 3.54959 109.448C3.64984 109.133 3.8573 110.918 4.01062 110.774C4.08845 110.633 4.47564 105.691 4.01594 105.366C4.1174 106.607 3.80778 110.027 3.44719 108.21C3.40153 107.975 3.79313 106.786 3.74397 106.5C3.25213 103.828 2.99899 111.719 3.08433 112.948C2.45506 108.521 3.40214 102.057 4.12382 96.6788C4.21606 95.9604 4.30102 95.2619 4.37214 94.5886C5.20105 92.3593 4.42386 98.1192 5.2202 95.5689C6.93051 90.3503 4.90138 94.0262 4.87488 93.8553C4.67737 92.4102 7.96606 88.4315 6.2885 88.0128C7.05119 86.1433 7.07464 86.8363 7.64569 84.0732C7.42122 84.3981 7.20006 84.7196 6.98152 85.0397C6.82898 81.6483 11.6051 76.2844 11.6212 76.8647C11.5975 78.279 9.69212 81.1961 9.6279 81.4897C9.5345 81.918 10.7586 83.5616 8.01959 87.6148C8.62748 89.7387 10.8566 80.7377 10.4279 85.0223C10.9245 82.1559 16.1476 71.6887 16.6133 70.0563C16.6512 69.8471 15.136 70.1398 17.0436 67.8409C17.9519 66.7623 16.3889 69.7027 16.9295 69.2719C17.7256 68.6067 20.9592 62.6335 25.3057 56.908C29.7374 50.8967 35.3116 45.342 37.1312 43.6964C37.3625 43.4846 37.5245 43.8343 37.7499 43.6263C38.4303 42.9812 40.6817 40.3203 42.1119 39.4142C38.9631 41.0755 44.2191 36.7632 45.6871 35.8609C47.8694 34.4324 48.114 35.0749 49.1094 34.5573C52.9037 32.5696 57.8665 27.9307 61.4636 27.735C60.6521 26.5224 66.8233 25.8268 69.212 24.8464C71.0821 24.0372 73.5019 22.053 70.7063 22.5717C74.0256 21.2624 77.4437 19.7282 80.5858 18.6145C81.1043 18.4309 80.5152 19.0645 81.3943 18.7411C81.4733 18.7093 81.4584 18.2781 82.2145 17.9958C88.4824 15.7347 85.6287 17.5304 86.8865 17.428C87.5908 17.383 88.0996 17.3213 88.4669 17.2483C84.7758 18.2948 80.6009 19.8213 79.4834 20.2222C80.7156 20.7165 87.5492 17.501 89.7617 17.2468C89.8373 17.2366 89.7064 17.7896 89.7819 17.7739C89.7835 17.7735 89.7851 17.7731 89.7866 17.7727C90.5829 17.581 95.6105 16.2378 94.4404 15.8947C94.1214 15.8016 91.7718 16.3136 89.0144 17.092C89.7365 16.7882 89.0351 16.388 89.1615 16.3303C90.7062 15.627 94.8028 15.2463 96.2269 15.0428C96.5523 14.9924 96.457 14.6435 96.5098 14.6318C97.8141 14.4529 97.4767 15.5699 98.5984 14.272C101.163 15.082 94.2776 15.3179 94.9242 16.0647C95.3914 16.4292 110.123 13.7125 110.031 12.8849C110.095 12.9869 110.317 13.0976 110.757 13.2054C111.725 13.4291 115.909 12.9786 116.624 12.7631C116.744 12.7189 116.634 11.7412 116.786 11.7228C117.164 11.6569 122.373 12.1965 124.316 11.6305C123.255 11.5007 122.208 11.3829 121.154 11.2769C127.509 11.1401 126.549 10.9301 124.408 10.622C124.301 10.6201 124.197 10.5836 124.094 10.5805C122.425 10.3741 120.324 10.2371 120.283 10.1625C120.127 9.77255 131.073 9.64534 128.951 10.5703C128.637 10.665 123.633 10.231 126.113 10.8936C126.539 10.9996 129.78 10.8829 129.951 10.97C131.053 11.4522 124.033 11.9698 124.901 12.6792C126.586 12.0273 128.76 12.4005 130.716 12.315C131.604 12.2764 131.845 11.7975 131.955 11.7932C133.597 11.7512 132.654 12.219 133.203 12.2371C133.497 12.2346 136.837 11.3862 136.097 12.8519C136.555 12.8421 136.979 12.834 137.371 12.8268C144.342 12.9106 141.963 12.4085 137.457 11.9076C135.973 11.7622 134.231 11.6469 132.561 11.5783C133.81 11.3186 135.751 11.4102 137.488 11.57C138.805 11.6891 140.02 11.8506 140.835 11.9059C141.547 11.956 141.196 11.3931 142.409 11.4683C144.979 11.4391 156.296 14.8005 158.998 16.0979C157.188 15.6699 157.532 16.3654 158.882 16.7898C160.233 17.2248 159.355 16.1355 159.642 16.153C159.982 16.1302 166.062 18.8988 167.077 19.3166C162.371 17.5772 163.233 18.5205 167.054 20.2641C166.438 20.1588 165.817 20.0571 165.198 19.9625C167.573 20.7044 171.789 23.7411 173.112 24.2063C173.326 24.2756 172.847 23.4938 172.966 23.5325C174.169 23.9249 177.554 26.4338 177.789 26.4126C178.001 26.3841 176.662 25.1362 177.33 25.3115C177.472 25.3481 178.636 26.7645 180.139 27.5451C180.697 27.8353 180.616 27.2645 180.762 27.3285C181.985 27.8743 180.938 28.0516 183 29.299C184.503 30.224 185.995 30.3919 187.808 32.0551C181.853 26.5902 187.14 30.8018 189.948 32.6801C190.393 32.9839 190.545 32.0507 192.801 34.4079C186.571 31.1998 193.858 36.1861 195.138 37.4386C195.208 37.508 194.888 37.9193 195.532 38.5113C195.587 38.5609 195.746 38.2259 196.367 38.756C202.155 43.8748 198.286 40.7752 199.103 42.0337C199.452 42.5646 202.415 44.8851 203.102 45.6327C203.261 45.8023 202.922 45.9729 203.534 46.6216C204.617 47.7696 205.843 48.5832 206.548 49.3624C206.626 49.4564 206.198 49.8269 207.601 51.229C207.616 51.2432 207.63 51.2574 207.644 51.2715C208.033 51.649 208.535 51.9567 208.178 51.2625C208.128 51.1657 208.073 51.0676 208.014 50.9681C206.627 48.5962 202.857 45.6492 201.229 43.2597C199.7 40.9404 205.674 47.1307 205.915 47.5158C206.025 47.6366 204.701 46.5706 205.783 47.8852C206.369 48.5999 207.59 49.4156 208.703 50.4027C209.338 50.9655 209.939 51.5835 210.366 52.2549C210.461 52.3962 210.848 54.2871 210.756 54.253C210.69 54.2128 208.913 52.2382 208.956 52.6964C208.965 52.7476 210.004 54.0681 209.989 54.354C209.978 54.7046 208.672 56.5943 208.835 56.9049C209.264 57.7065 209.314 56.9394 209.633 57.429C210.341 58.4726 212.256 62.3985 212.948 62.1069C212.589 61.4837 212.225 60.8637 211.854 60.2471C214.16 63.5107 213.464 61.9324 213.9 62.3236C214.362 62.7538 213.717 62.9712 214.385 64.1409C214.559 64.3755 217.556 69.1586 217.722 68.951C215.789 66.455 217.062 67.0523 217.006 66.9173C216.773 66.4142 216.02 66.048 215.645 65.4162C212.966 60.9874 216.352 65.0243 215.862 63.8897C215.691 63.4954 214.907 62.9955 214.827 62.8348C214.567 62.3094 214.992 62.0197 214.744 61.7152C214.163 61.0071 214.138 62.2968 214.066 62.2565C213.254 61.8279 211.935 58.8943 213.704 60.0788C213.267 58.9299 212.396 59.3683 212.169 58.3767C211.701 56.4013 213.179 58.8093 213.709 59.3737C215.624 61.3952 215.785 62.2736 217.903 65.5432C218.66 66.725 219.884 67.9461 220.222 68.5101C220.457 68.8691 220.815 73.0462 223.118 72.0041C223.594 73.49 223.103 76.3625 223.795 77.7438C224.422 78.9916 225.062 78.2264 225.147 78.3316C225.279 78.4934 225.878 80.0908 226.209 80.5784C226.601 81.149 226.793 80.7035 227.319 81.656C228.612 84.0413 227.71 84.3081 227.753 84.5841C228.176 87.8242 228.925 86.0758 229.258 86.7154C229.651 87.2901 231.76 96.3951 232.392 98.2775C232.042 97.533 231.685 96.7951 231.32 96.0641C231.108 97.5831 232.325 98.8561 231.34 99.1048C233.01 99.0304 232.518 102.174 232.698 103.036C232.775 103.378 233.045 103.301 233.13 103.733C233.481 105.422 233.751 109.298 233.969 110.217C235.011 114.206 234.868 103.714 234.66 102.885C235.026 104.481 236.384 113.789 236.707 109.395C236.757 108.708 235.891 107.62 235.814 107.255C235.291 104.768 236.205 106.649 236.241 106.445C236.298 106.09 235.431 104.532 235.433 104.087C235.43 103.938 236.18 104.777 235.789 102.377C236.618 103.443 237.034 110.334 237.191 111.222C237.244 111.537 238.386 109.407 237.562 115.409C237.672 115.334 237.782 115.258 237.892 115.183C238.106 118.473 238.166 121.793 238.067 125.11C237.824 124.737 237.37 122.874 237.389 125.209C237.389 126.556 238.017 125.585 238.028 125.708C238.04 125.859 238.032 126.325 237.998 127.032C238.073 131.821 235.158 147.881 234.018 151.234C233.703 152.554 233.037 156.351 232.943 156.629C232.5 158.318 230.09 164.037 229.646 165.195C229.392 165.926 230.114 165.424 229.83 166.057C229.564 166.643 229.392 165.852 229.301 166.021C228.735 167.187 225.553 175.13 223.148 178.963C222.677 179.748 222.262 180.371 221.953 180.75C222.185 180.416 222.558 179.729 222.975 178.866C224.395 176.006 226.083 171.165 225.782 171.181C225.729 171.199 224.498 172.923 224.451 173.384C223.78 173.839 223.725 176.576 222.853 177.64C222.771 177.739 222.544 177.161 221.722 178.156C221.562 178.348 221.38 178.598 221.17 178.922C220.728 179.608 220.091 181.744 218.418 183.253C217.242 186.259 206.234 198.656 205.752 199.812C205.759 199.868 207.542 198.307 206.682 199.689C205.522 201.52 205.852 199.198 204.07 200.885C203.84 201.173 198.992 206.013 198.838 206.193C197.788 208.186 202.469 204.341 202.445 204.435C202.469 204.762 198.828 208.287 198.617 208.362C198.44 208.444 200.865 204.963 197.4 208.504C197.907 208.23 198.413 207.952 198.917 207.67C197.316 209.389 196.685 208.97 196.231 209.299C194.81 210.298 193.958 212.375 190.922 212.954C190.123 213.1 190.886 212.054 190.78 212.065C189.801 212.195 189.601 213.916 187.977 213.879C187.853 213.864 190.087 211.681 185.635 214.677C185.992 214.552 186.35 214.425 186.707 214.296C186.211 214.92 181.622 217.928 180.937 218.224C178.995 219.167 180.319 217.66 178.472 218.774C180.133 218.941 174.311 222.13 174.31 221.199C173.909 222.537 168.467 224.158 165.985 225.027C164.43 225.622 161.343 227.137 160.809 227.242C160.173 227.377 160.173 226.654 159.03 226.841C158.722 226.894 155.484 228.392 152.412 228.348C151.812 228.346 150.412 227.427 151.406 226.901C153.09 226.022 156.642 226.063 156.439 225.383C156.215 224.692 151.837 226.268 150.584 226.405C144.871 227.085 148.021 225.617 147.828 225.418C147.372 224.911 144.341 225.428 144.203 225.383C143.651 225.225 145.748 224.425 145.727 224.054C145.699 223.589 142.718 223.157 143.358 222.899C144.269 222.555 146.98 222.832 147.143 222.76C149.221 221.914 146.116 221.378 145.251 220.955C144.987 220.829 145.917 220.405 145.709 220.389C142.549 220.125 145.257 222.03 143.163 222.174C141.315 222.279 143.596 221.25 143.525 221.216C143.421 221.191 141.244 221.428 140.877 221.202C140.717 221.124 146.19 218.953 145.84 218.341C144.098 218.763 142.333 219.138 140.57 219.464C140.368 218.659 142.952 218.975 143.214 218.844C143.725 218.606 142.204 218.383 142.245 218.113C142.263 217.945 143.904 217.141 142.34 217.092C141.81 217.069 140.751 217.789 138.766 217.359C145.399 215.937 140.705 215.947 140.505 215.675C140.298 215.4 143.347 214.405 139.576 214.896C139.292 213.298 139.622 214.384 140.665 213.998C141.934 213.506 138.882 213.342 143.661 213.173C143.289 212.49 139.536 212.938 139.322 212.875C139.146 212.835 139.958 212.394 139.649 212.294C136.021 211.094 138.488 211.583 137.421 210.715C137.327 210.648 134.063 210.421 136.531 210.189C141.019 209.728 143.019 210.461 143.482 208.136C140.128 207.584 136.29 209.221 135.267 209.267C133.729 209.338 135.312 208.831 135.117 208.703C135.052 208.664 133.733 208.722 133.714 208.682C132.761 206.956 139.548 208.53 141.651 207.919C141.06 207.719 140.472 207.51 139.887 207.295C140.652 207.224 141.399 207.144 142.169 207.05C138.491 206.88 142.03 206.879 142.752 205.377C142.911 205.044 140.645 205.836 143.196 204.672C141.217 204.691 141.809 204.339 140.09 204.883C140.088 204.334 143.964 203.329 145.419 202.795C139.953 202.851 143.252 204.576 138.425 203.836C137.589 204.588 139.858 204.318 139.681 204.44C139.046 204.904 137.443 204.34 135.605 205.849C135.297 206.097 136.659 206.816 134.679 206.817C134.458 206.819 133.187 206.18 133.206 206.131C133.372 205.633 134.61 205.818 134.656 205.607C134.701 205.412 133.326 205.532 133.32 205.475C133.275 204.848 134.464 205.238 134.289 205.04C133.882 204.623 129.077 203.217 135.372 203.653C130.121 204.343 134.734 204.393 136.751 204.04C137.262 203.955 137.38 203.58 138.11 203.418C139.049 203.208 140.165 203.305 140.644 203.196C141.156 203.073 138.116 202.477 142.416 202.345C140.155 201.738 136.396 202.841 134.23 202.194C129.933 200.875 137.167 200.73 137.881 200.507C138.077 200.467 137.379 199.992 137.51 199.956C137.73 199.931 141.756 199.908 142.106 199.433C142.451 198.994 140.636 199.586 140.474 199.162C140.376 198.911 145.047 197.924 142.461 197.996C140.691 198.057 137.512 199.359 136.871 198.101C139.478 197.95 142.046 197.657 144.578 197.223C143.108 196.945 141.652 196.613 140.216 196.229C143.032 195.902 145.572 196.104 148.07 194.968C141.473 194.546 149.859 193.502 149.871 193.22C149.869 193.124 147.171 192.433 146.75 192.262C148.821 191.542 154.942 189.7 150.899 189.222C151.654 189.387 152.962 188.187 152.919 188.132C152.525 187.603 149.268 188.814 149.657 188.111C150.109 187.317 151.257 187.996 152.211 187.662C157.07 185.814 154.452 183.216 159.229 181.838C159.086 181.772 158.944 181.707 158.802 181.64C163.786 179.693 168.542 176.912 172.852 173.406C173.886 171.307 177.421 166.85 179.203 164.646C179.585 164.227 181.662 162.253 181.85 162.11C182.223 161.882 181.006 163.705 181.842 163.082C182.054 162.983 184.892 159.001 184.216 159.001C183.888 159.436 183.199 161.019 182.934 161.178C182.141 161.652 183.356 159.774 184.78 157.247C186.739 153.881 188.834 149.168 188.774 148.684C188.489 148.93 188.203 149.173 187.916 149.413C188.352 148.573 188.775 147.713 189.177 146.854ZM186.287 216.892C185.78 217.895 183.531 218.807 182.383 219.656C180.821 220.847 178.814 224.385 179.116 221.748C181.581 220.221 183.973 218.6 186.287 216.892ZM216.479 188.847C215.148 190.204 215.061 188.339 216.327 187.37C216.465 187.263 218.262 186.985 216.479 188.847ZM203.245 203.572C203.293 203.507 204.474 202.368 204.525 202.339C205.9 201.631 202.322 205.07 203.245 203.572ZM237.104 118.619C237.182 120.701 238.25 119.168 237.774 117.876C237.744 117.796 237.099 118.483 237.104 118.619ZM237.092 120.101C236.147 121.716 238.005 124.993 237.871 122.392C237.862 122.137 237.144 120.022 237.092 120.101ZM212.07 193.923C211.923 193.529 213.256 192.121 213.823 191.511C214.076 191.735 212.551 193.269 212.07 193.923ZM233.662 150.772C233.444 150.632 231.604 156.952 231.778 157.483C231.988 156.46 233.924 150.917 233.662 150.772ZM236.45 134.176C236.386 134.336 236.164 136.583 236.421 136.551C236.912 135.501 236.766 133.456 236.45 134.176ZM235.334 100.116C235.237 100.008 233.991 102.027 234.213 97.8073C234.242 97.1832 235.113 99.1892 235.124 98.9702C235.146 98.5058 235.124 98.1463 235.073 97.8652C235.616 99.7078 236.032 101.663 235.966 101.872C235.663 102.85 235.379 100.163 235.334 100.116ZM229.368 83.3857C228.988 83.116 228.244 80.7703 228.131 80.2106C228.114 80.1132 228.934 80.2324 228.464 79.221C228.083 78.4131 227.922 79.9244 227.361 78.2818C226.782 76.6247 228.178 78.5696 228.15 78.4176C228.122 78.2029 226.739 75.8461 227.154 75.7502C227.474 75.6735 228.443 78.4412 228.768 79.0881C229.196 79.9138 229.261 78.6683 229.734 80.1549C230.027 81.0908 228.973 80.9282 229.005 81.1368C229.042 81.303 230.717 84.2991 229.369 83.3798C229.369 83.3818 229.369 83.3837 229.368 83.3857ZM234.923 97.368C234.984 97.5018 235.037 97.6635 235.073 97.8652C235.025 97.698 234.973 97.5321 234.923 97.368ZM190.622 213.423C191.59 213.069 189.398 215.108 188.264 215.42C188.092 215.188 190.476 213.487 190.622 213.423ZM233.802 95.8186C233.346 93.0256 234.177 94.944 234.923 97.368C234.58 96.6235 233.946 96.7581 233.802 95.8186ZM224.451 173.384C224.564 173.308 224.69 173.287 224.846 173.354C224.54 173.55 224.438 173.53 224.451 173.384ZM227.51 167.581C227.926 165.326 226.129 169.498 226.459 169.621C226.596 169.67 227.499 167.673 227.51 167.581ZM237.072 115.953C237.025 116.161 235.305 113.014 236.683 117.651C236.786 115.128 237.052 117.773 237.186 117.732C237.604 117.612 237.023 113.382 237.099 112.437C236.334 111.765 237.228 115.244 237.071 115.948C237.071 115.95 237.071 115.952 237.072 115.953ZM215.011 55.4796C215.685 55.6782 216.584 57.1995 217.222 58.2008C216.558 57.9795 215.683 56.4576 215.011 55.4796ZM7.59962 143.416C4.84776 135.453 6.40284 133.951 7.71864 141.502C7.74119 141.649 7.91964 143.844 7.59962 143.416ZM11.9659 71.9201C13.0005 71.5014 11.9803 73.9894 11.0299 75.4925C10.8124 75.8292 9.53518 76.9255 10.0349 75.2903C10.8725 75.6755 12.1901 73.4522 11.9659 71.9201ZM232.954 94.3947C232.273 93.7297 231.962 91.2205 231.648 89.9328C232.283 90.5798 232.827 93.2173 232.954 94.3947ZM3.7783 116.025C3.80432 115.126 3.1258 114.549 3.07296 114.702C2.82939 115.398 3.43678 117.065 3.7783 116.025ZM234.588 102.365C234.323 102.526 233.419 99.3205 234.083 98.9355C234.186 99.6447 234.765 102.247 234.588 102.365ZM216.105 57.4381C216.267 57.9404 214.546 55.9454 214.198 55.2179C214.502 55.0745 216.006 57.1029 216.105 57.4381ZM4.07043 101.671C4.20784 100.888 4.47979 98.9145 4.24768 98.6573C3.94349 98.3381 3.68322 101.272 4.07043 101.671ZM71.0553 218.183C71.0637 218.343 68.1495 217.656 67.1892 216.758C65.3796 215.088 70.9938 218.077 71.0553 218.183ZM4.77967 124.388C4.46087 126.954 4.7225 124.118 4.07377 124.308C4.22863 125.998 4.86131 130.154 5.06895 127.195C5.11036 126.624 4.82792 125.174 4.77967 124.388ZM4.7521 122.066C4.50697 121.823 3.66665 120.077 3.85421 121.637C3.94441 122.364 4.82246 123.438 4.7521 122.066ZM56.2693 208.502C54.9683 206.775 62.4035 212.714 62.6211 212.91C62.7087 213.04 62.757 213.139 62.7762 213.208C63.1754 213.247 64.6878 214.227 64.5919 214.76C64.1628 214.427 62.9127 213.63 62.8019 213.485C62.7537 213.424 62.7204 213.374 62.7015 213.334C61.9008 213.358 56.4807 208.86 56.2693 208.502ZM44.6727 197.795C47.0059 198.743 46.3014 200.164 46.1147 200.066C43.778 198.774 45.7893 199.079 45.7648 198.986C45.6895 198.8 43.9955 197.933 44.6781 197.8C44.6763 197.798 44.6745 197.797 44.6727 197.795ZM53.8765 206.301C53.9639 206.349 55.5025 207.625 55.554 207.692C56.5268 209.125 52.1611 205.502 53.8765 206.301ZM223.201 71.7657C222.66 70.3802 223.804 71.4233 224.067 72.399C224.085 72.4812 223.669 72.9894 223.201 71.7657ZM4.49307 120.853C4.46189 120.493 4.54316 111.349 3.80369 111.894C3.75494 112.668 3.94516 123.143 4.49307 120.853ZM22.8058 55.798C21.9641 56.9279 22.1686 55.668 22.736 54.9655C22.825 54.8553 22.9227 54.7591 23.0259 54.6886C23.1958 54.5728 23.1686 54.8815 23.0678 55.2163C23.0015 55.4362 22.9035 55.6677 22.8058 55.798ZM234.594 106.928C235.218 108.506 233.788 108.349 234.08 106.879C234.091 106.821 234.569 106.866 234.594 106.928ZM15.3528 66.5885C17.7948 61.4175 19.0773 63.7608 14.966 69.8182C14.9709 69.5651 14.9768 69.3119 14.9839 69.0584C10.9552 76.533 14.504 69.4637 15.4033 67.5869C15.733 66.8625 15.0552 67.255 15.3476 66.592C15.3493 66.5908 15.351 66.5897 15.3528 66.5885ZM28.2388 49.2284C33.1063 46.4572 25.4214 53.1833 23.9207 55.7822C25.0609 53.0847 27.5525 50.255 23.7793 53.7564C28.3662 47.8796 26.9722 50.7851 27.1878 50.5707C27.4627 50.3485 28.0287 49.3485 28.2388 49.2284ZM19.5767 60.5178C19.4437 60.8008 17.8682 62.6202 17.4828 63.3913C17.5705 62.0325 20.4386 58.5755 19.5767 60.5178ZM32.9489 186.048C33.4325 185.871 33.9817 185.981 34.973 187.391C34.4424 187.155 33.5698 186.463 32.9489 186.048ZM183.522 215.769C182.438 216.416 180.174 217.531 181.077 217.569C181.177 217.571 183.665 216.013 183.522 215.769ZM6.17329 94.3926C6.21768 94.1292 7.81578 87.2999 6.76956 89.5476C6.38577 90.2495 5.24923 96.5071 6.17329 94.3926ZM6.06816 130.25C5.96211 129.682 5.49717 127.366 5.3853 127.331C4.97247 127.233 5.65063 130.075 6.06816 130.25ZM177.78 218.55C177.623 218.6 174.22 220.436 174.687 220.443C175.606 220.487 178.366 218.432 177.78 218.55ZM219.725 67.564C219.559 67.3055 219.796 66.7002 219.748 66.6045C219.657 66.3656 216.556 61.6548 218.232 63.1499C218.572 63.3654 222.377 70.5815 222.732 71.5902C222.31 72.2687 221.294 68.8831 220.808 68.1807C220.723 68.0571 220.173 68.2553 219.728 67.5647C219.727 67.5645 219.726 67.5642 219.725 67.564ZM39.305 192.34C39.7828 192.226 44.5437 196.534 44.1303 196.868C42.4911 195.396 40.8834 193.889 39.305 192.34ZM37.1141 189.891C36.421 188.654 38.6743 190.957 39.2347 191.739C39.0169 191.965 37.2108 190.075 37.1141 189.891ZM6.23227 117.093C6.08796 116.407 5.55012 118.567 5.3997 118.101C5.30032 117.8 5.46933 116.238 5.25291 115.749C5.18132 115.608 4.63342 117.228 4.68824 117.689C4.75959 118.34 5.20326 117.679 5.24829 118.388C5.40281 120.73 5.26446 122.855 5.55273 125.048C5.57933 125.244 5.72142 123.67 5.93223 125.353C5.96704 125.611 5.66717 127.248 6.08676 129.248C8.41058 133.348 7.60131 136.868 9.77403 142.108C9.83363 141.866 9.0698 137.726 9.04315 137.483C8.03964 132.91 6.64187 124.602 6.35748 119.653C6.26835 118.39 5.98205 119.027 5.93397 118.481C5.90007 118.049 6.53686 118.525 6.23227 117.093ZM183.921 215.124C183.104 214.932 181.515 216.356 180.326 216.999C181.003 217.246 182.746 215.717 183.921 215.124ZM20.0941 166.066C19.7457 165.523 18.9304 163.688 18.6903 163.632C18.3676 163.567 19.655 166.169 20.0941 166.066ZM200.814 42.3072C200.76 42.2737 199.684 41.1573 199.653 41.104C199.01 39.776 202.245 43.1381 200.814 42.3072ZM170.661 20.3118C169.541 19.8434 168.357 19.5043 168.192 18.8861C168.866 19.27 170.942 20.0623 170.661 20.3118ZM119.754 10.3379C120.012 10.9669 116.572 10.7155 115.925 10.7121C116.139 10.3994 119.557 9.86919 119.754 10.3379ZM34.3764 184.488C35.7092 186.115 36.1805 185.101 36.7129 186.406C36.7994 186.617 35.6926 188.568 34.7561 186.288C34.5931 185.878 36.0222 186.783 34.3764 184.488ZM14.4195 70.8757C14.5458 71.5858 13.6485 73.1903 13.1259 74.3105C12.9347 73.934 14.0539 71.6722 14.4195 70.8757ZM171.339 221.188C170.149 221.093 165.793 223.351 167.046 223.278C167.236 223.279 170.712 221.469 171.339 221.188ZM229.576 89.5158C228.548 87.8015 229.613 91.6841 230.375 92.7951C230.201 92.2437 229.652 89.631 229.576 89.5158ZM131.737 10.7295C131.647 10.7409 129.649 10.6162 129.558 10.5937C127.93 10.0328 133.6 10.3876 131.737 10.7295ZM181.067 27.1103C180.253 27.0175 176.241 24.2162 175.448 23.3578C176.69 23.3321 182.141 27.181 181.067 27.1103ZM28.7585 177.867C29.6768 179.068 30.452 180.278 31.1778 181.474C30.7217 181.468 28.6397 178.154 28.7585 177.867ZM124.408 10.622C124.301 10.6201 124.197 10.5836 124.094 10.5805C124.201 10.5935 124.306 10.6087 124.408 10.622ZM12.4587 147.721C12.1294 146.447 11.6511 146.911 11.6602 146.995C11.8109 147.999 12.8417 149.162 12.4587 147.721ZM182.161 215.17C181.497 214.946 179.768 216.46 178.563 216.974C179.096 217.178 181.304 215.77 182.161 215.17ZM32.9603 45.8704C34.5371 45.0972 30.2832 50.4155 29.1009 51.2909C28.7138 51.1037 32.6902 45.951 32.9603 45.8704ZM230.433 95.5692C230.065 95.797 231.197 98.3997 231.254 97.7774C231.298 97.3772 230.671 95.4248 230.433 95.5692ZM26.6874 53.7619C26.3793 54.3411 25.1159 55.2682 25.2425 54.6917C25.4081 53.9447 26.7652 53.6064 26.6874 53.7619ZM6.63565 107.303C6.69723 107.035 6.54522 103.231 5.98874 104.758C5.60167 105.825 6.21396 106.038 6.19874 106.292C6.15013 106.577 5.16368 112.589 6.63565 107.303ZM63.5819 24.9183C62.4354 25.6544 60.8868 26.2223 59.6339 26.8986C60.0171 26.3845 62.9075 24.8424 63.5819 24.9183ZM227.199 85.3093C227.228 85.6538 229.839 94.4216 228.805 89.293C228.77 88.9852 227.357 84.1627 227.199 85.3093ZM34.3764 184.488C34.2091 184.282 34.0282 184.035 33.8341 183.734C34.0467 184.015 34.2213 184.269 34.3764 184.488ZM20.5941 164.768C21.1103 165.037 19.9612 162.837 19.4692 162.269C19.0154 162.26 20.5158 164.737 20.5941 164.768ZM59.7413 27.3323C59.1039 27.8689 57.7073 28.4127 56.8331 28.9324C56.8361 28.5897 59.291 27.2288 59.7413 27.3323ZM113.512 12.2311C111.924 12.1891 110 12.4756 110.008 12.8314C109.97 12.78 109.887 12.7299 109.754 12.6853C109.621 12.6393 107.954 12.9977 107.218 12.9735C102.73 12.6325 124.108 10.9657 111.833 13.0357C112.391 12.7642 112.943 12.4965 113.512 12.2311ZM186.004 31.5162C186.506 32.4054 188.897 33.5624 188.465 33.0179C188.173 32.6289 185.507 30.6085 186.004 31.5162ZM153.408 15.6531C153.666 15.7958 156.275 16.2716 156.409 16.0855C155.031 15.3837 152.235 14.9531 153.408 15.6531ZM191.316 36.3092C191.72 36.7294 192.732 36.6801 192.7 36.6136C192.415 36.0338 190.81 35.3865 191.316 36.3092ZM33.1133 179.905C32.746 179.126 30.7073 177.319 29.9828 177.124C29.9901 176.981 29.9081 176.673 29.7025 176.153C29.7035 176.154 29.7045 176.155 29.7055 176.156C29.1434 175.695 17.793 156.853 24.7813 169.904C25.0095 170.307 25.0123 169.552 25.9825 171.159C26.0466 171.265 25.7949 171.51 25.9944 171.838C26.4372 172.605 28.9706 176.57 29.7707 177.142C29.7244 177.187 29.712 177.272 29.7448 177.41C30.0339 178.655 33.3974 180.526 33.1133 179.905ZM148.307 14.4249C148.801 14.6579 150.467 14.9365 150.709 14.6955C149.932 14.3384 147.157 13.872 148.307 14.4249ZM226.162 85.9874C226.291 87.0434 227.54 89.4075 227.518 88.574C227.52 88.0514 226.023 84.7559 226.162 85.9874ZM164.316 19.3746C158.753 16.7631 162.952 18.8507 161.922 18.9053C162.72 19.0513 163.518 19.2078 164.316 19.3746ZM50.7363 199.947C50.1151 199.266 51.5015 199.291 51.9548 200.319C52.0972 200.644 51.0853 200.327 50.7363 199.947ZM85.7748 222.389C85.3699 221.316 88.7656 223.359 87.1461 223.252C87.0727 223.242 85.8141 222.443 85.7748 222.389ZM60.85 207.263C60.0321 207.336 59.6535 207.145 58.3427 205.978C60.502 207.418 58.8594 205.586 60.85 207.263ZM110.031 12.8849C110.019 12.8651 110.009 12.8507 110.008 12.8314C110.022 12.8491 110.028 12.8665 110.031 12.8849ZM195.604 39.8853C195.857 40.7056 197.377 42.1097 197.235 41.3653C197.223 41.2927 196.05 39.8497 195.604 39.8853ZM29.9828 177.124C29.9764 177.251 29.9052 177.243 29.7707 177.142C29.8142 177.099 29.8845 177.099 29.9828 177.124ZM186.781 32.9982C187.046 32.7748 184.545 30.7849 184.411 30.7513C182.592 30.1619 185.73 32.2087 186.781 32.9982ZM230.805 106.589C230.862 106.749 231.53 105.562 231.104 104.962C230.775 104.502 230.594 105.996 230.805 106.589ZM65.84 210.506C66.6451 211.052 67.7848 211.799 67.7691 212.294C67.2577 211.888 65.6506 210.757 65.84 210.506ZM84.6287 221.205C83.3716 221.177 80.9272 219.971 79.4846 219.114C79.7381 218.516 83.5653 220.9 84.6287 221.205ZM34.5994 182.118C34.5638 182.042 33.1679 180.015 33.0477 180.545C32.8633 181.33 34.8625 182.806 34.5994 182.118ZM230.419 101.628C229.927 100.57 229.578 103.293 230.423 104.359C230.868 104.911 230.514 101.806 230.419 101.628ZM199.847 44.8098C201.052 45.7 198.797 42.7787 198.112 42.7363C198.579 43.2388 199.423 44.4928 199.847 44.8098ZM157.209 18.0078C161.313 20.7639 159.63 17.7596 158.746 17.6547C158.621 17.6385 157.105 17.9401 157.209 18.0078ZM159.121 223.089C158.508 223.471 161.148 223.321 161.339 222.798C161.456 222.481 159.514 222.854 159.121 223.089ZM88.4669 17.2483C88.6509 17.1953 88.8335 17.143 89.0144 17.092C88.8832 17.1474 88.7056 17.2009 88.4669 17.2483ZM207.282 55.9273C206.682 52.2875 205.795 53.4122 205.633 53.1908C205.596 53.1421 205.557 53.0843 205.517 53.0187C205.156 52.4345 204.648 51.2343 203.917 50.4984C204.677 51.149 205.428 51.8087 206.173 52.4796C206.419 52.7013 206.664 52.9243 206.909 53.1485C206.824 53.0118 206.63 52.7207 206.358 52.3281C204.902 50.1285 200.766 45.0091 200.45 45.0834C199.972 45.1657 202.03 47.1559 202.054 47.248C202.098 47.3716 201.56 48.4658 201.703 48.6881C201.852 48.9107 203.833 51.1501 205.358 53.1488C206.301 54.3738 207.088 55.5 207.282 55.9273ZM166.592 21.4892C165.952 21.0514 165.93 20.5517 165.559 20.5058C165.432 20.4907 165.242 20.8755 164.817 20.813C165.412 21.033 166.005 21.2594 166.592 21.4892ZM211.993 59.6665C212.097 60.7169 209.874 57.2324 209.827 57.1003C209.694 56.3118 211.925 58.7929 211.993 59.6665ZM187.808 34.2618C187.917 34.3709 190.309 36.4975 190.468 36.2649C189.969 35.5369 186.618 32.8529 187.808 34.2618ZM164.334 20.6383C163.3 20.1363 161.425 18.9366 161.423 19.6325C161.425 19.6332 161.427 19.6338 161.428 19.6344C162.401 19.9534 163.37 20.2882 164.334 20.6383ZM228.302 98.1223C227.771 100.385 228.817 99.1399 228.708 97.2496C228.134 96.8126 228.386 97.7503 228.302 98.1223ZM228.858 104.818C228.819 105.412 229.763 111.303 230.166 110.346C230.335 109.993 229.42 106.631 229.419 106.476C229.437 106.228 230.189 107.23 229.795 105.423C229.615 105.56 228.887 104.611 228.858 104.818ZM228.044 99.9514C227.715 102.129 229.185 102.305 228.885 100.772C228.766 100.171 228.091 99.6386 228.044 99.9514ZM226.064 91.767C226.152 92.5171 226.504 94.4581 227.299 95.6576C226.88 93.8787 226.417 92.1135 225.908 90.362C225.589 90.244 225.993 91.1109 226.066 91.7718C226.065 91.7702 226.065 91.7686 226.064 91.767ZM97.4548 222.171C96.0762 221.223 99.6308 222.276 99.7439 222.411C100.078 222.903 98.0756 222.604 97.4548 222.171ZM144.326 212.399C143.898 212.284 143.568 211.756 142.714 212.162C143.657 212.472 144.608 212.765 145.566 213.039C146.119 211.982 144.794 212.529 144.326 212.399ZM140.582 209.281C140.7 209.245 139.905 207.827 141.551 208.666C142.708 209.248 136.918 210.414 135.853 209.725C136.984 209.386 139.556 209.577 140.582 209.281ZM130.622 202.954C130.567 202.834 132.593 202.734 132.823 202.818C134.058 203.297 130.945 203.641 130.622 202.954ZM137.118 203.292C136.151 203.032 138.254 202.775 138.893 202.898C138.979 203.176 137.27 203.334 137.118 203.292ZM92.2494 196.442C91.7768 195.082 89.9493 196.606 91.5915 196.932C91.6701 196.948 92.2674 196.506 92.2494 196.442ZM132.61 201.489C133.541 201.811 131.473 201.946 130.853 201.736C130.805 201.452 132.47 201.447 132.61 201.489ZM92.6812 193.962C91.8026 192.711 91.1072 195.096 91.2183 195.264C91.6711 195.937 94.3011 196.134 94.846 196.112C91.3968 194.897 93.1065 194.545 92.6812 193.962ZM86.3942 192.29C85.1374 191.877 87.7733 193.941 88.6506 193.625C88.0758 193.357 86.7502 192.409 86.3942 192.29ZM80.1664 187.57C79.6301 187.12 78.0633 185.806 77.5633 185.917C78.2161 186.292 79.7002 187.737 80.1664 187.57ZM79.5114 185.763C78.9269 184.743 77.8535 185.833 79.1285 186.157C79.1781 186.17 79.5275 185.809 79.5114 185.763ZM74.9509 181.858C74.7569 180.969 73.231 181.631 74.1157 182.351C74.3811 182.562 74.9687 181.957 74.9509 181.858ZM92.3838 190.867C91.64 190.195 90.0088 190.533 91.8258 191.607C91.0924 191.412 90.3594 191.209 89.6339 191.001C91.7898 192.82 92.3119 191.414 92.9781 191.821C93.9164 192.383 93.2999 193.426 92.929 193.669C94.0754 193.422 97.5547 195.028 99.6543 195.708C97.9799 194.699 95.3538 192.923 93.7343 191.899C93.274 191.609 92.6492 191.668 92.2493 191.423C91.61 191.028 92.4251 190.908 92.3872 190.869C92.3861 190.868 92.3849 190.867 92.3838 190.867ZM68.8294 176.934C67.7226 175.091 67.7398 177.029 68.797 177.59C68.8476 177.607 68.8569 176.979 68.8294 176.934ZM130.103 196.721C132.627 197.517 130.8 198.351 136.123 197.153C133.918 198.042 136.025 197.798 135.602 198.156C135.259 198.445 133.912 198.189 134.705 198.776C133.649 198.177 129.253 198.081 129.041 197.929C129.043 197.929 129.045 197.929 129.047 197.93C128.931 197.856 129.299 196.45 130.103 196.721ZM82.2886 184.372C82.7228 182.529 80.9111 184.722 80.6589 182.771C77.9759 183.56 84.6855 185.451 84.4197 187.355C78.3848 183.336 87.5484 191.397 84.6774 186.435C87.7088 189.416 86.0131 186.847 86.7396 186.88C87.5064 186.912 89.3165 188.397 89.5484 187.757C89.5473 187.756 89.5462 187.756 89.5451 187.755C88.2795 187.106 87.0549 186.449 85.8132 185.751C86.2537 187.695 83.9679 185.809 83.7907 184.301C83.292 184.329 82.7912 184.353 82.2886 184.372ZM88.5104 189.703C88.3951 189.614 85.592 188.227 85.6179 188.567C85.8705 188.956 89.8679 190.946 88.5104 189.703ZM100.899 195.246C99.8933 194.85 98.4419 193.931 97.6604 194.184C98.6799 194.637 100.144 195.543 100.899 195.246ZM55.1702 161.277C53.9306 160.445 56.6145 163.914 56.2038 162.609C56.1797 162.547 55.2274 161.32 55.1702 161.277ZM79.4519 182.79C78.5788 181.519 78.1323 183.317 79.2833 183.567C79.3497 183.58 79.4922 182.848 79.4519 182.79ZM132.165 196.642C132.246 196.23 135.936 196.645 136.574 196.608C136.248 197.043 132.04 197.168 132.165 196.642ZM103.277 194.42C101.842 192.249 98.5198 192.786 98.2133 192.601C97.94 192.438 98.6731 192.019 98.6141 191.974C98.4847 191.892 95.3731 190.534 95.202 190.488C95.0789 190.469 95.2146 191.587 94.4463 191.549C95.9328 191.731 101.51 194.466 101.857 194.435C102.119 194.442 100.747 192.854 103.273 194.419C103.275 194.42 103.276 194.42 103.277 194.42ZM97.5698 192.091C98.1786 192.801 95.981 191.871 95.5143 191.479C94.487 190.634 97.4939 192.02 97.5698 192.091ZM92.5456 189.272C92.3307 189.069 90.2029 187.844 89.7978 188.115C90.549 189.191 93.0041 189.743 92.5456 189.272ZM69.5852 173.674C69.0516 173.286 67.9518 171.849 67.6209 172.053C68.1349 172.454 69.2535 173.889 69.5852 173.674ZM144.1 192.903C143.082 192.703 145.295 192.313 145.963 192.355C146.052 192.602 144.19 192.927 144.1 192.903ZM81.362 179.679C81.0785 179.418 74.7329 175.056 73.8123 174.442C74.4112 175.389 80.5488 179.996 80.9576 180.033C81.0657 180.057 81.3911 179.721 81.362 179.679ZM95.6846 187.863C96.5561 187.653 96.6581 188.454 96.7358 188.501C97.4767 188.951 99.1341 189.546 98.5518 189.889C97.273 189.099 93.9328 188.267 95.6846 187.863ZM70.8478 171.436C68.7444 169.856 72.1388 173.62 72.0319 172.741C72.0211 172.688 71.0638 171.601 70.8478 171.436ZM82.1649 180.031C82.8583 180.03 89.1424 184.425 90.2342 184.955C88.8502 185.144 88.4127 184.153 87.1194 183.425C86.7696 183.228 86.6751 183.579 86.6379 183.557C86.0339 183.207 86.6934 183.137 86.3341 182.91C86.1016 182.806 81.1117 180.118 82.1649 180.031ZM96.214 187.681C96.7392 187.603 101.018 189.351 101.166 189.476C102.19 190.634 96.4824 187.994 96.214 187.681ZM82.0133 179.026C83.2385 178.706 86.0321 181.305 83.5897 180.287C83.3578 180.187 82.7296 179.26 82.0133 179.026ZM71.6701 170.938C71.5837 170.836 69.7116 168.898 69.4705 169.081C69.6627 169.443 72.5549 172.13 71.6701 170.938ZM73.415 171.074C73.3608 171.037 73.4513 171.893 72.5419 171.015C72.4682 170.94 72.7532 170.321 71.4111 169.455C71.1388 169.28 70.4718 169.268 70.4798 169.312C70.9909 171.218 76.1304 172.909 73.415 171.074ZM96.5369 187.224C96.4427 186.861 97.3561 186.354 97.6616 186.973C97.7935 187.239 97.1662 187.514 96.5369 187.224ZM65.6473 164.885C67.0877 165.652 63.7755 162.091 63.5349 161.977C63.3966 162.305 65.4928 164.815 65.6473 164.885ZM145.568 188.775C145.567 188.775 145.566 188.775 145.565 188.775C146.721 188.722 146.109 189.233 146.164 189.239C148.749 189.438 147.876 188.605 148.226 188.435C148.969 188.044 149.131 189.186 150.375 188.419C148.3 189.595 150.281 188.86 150.461 189.23C151.162 190.785 147.216 189.144 146.168 189.618C146.015 189.694 147.317 190.023 146.938 190.238C145.667 190.982 141.104 188.878 145.568 188.775ZM98.0745 187.081C98.8278 186.903 102.708 189.068 101.462 188.996C101.25 189.012 96.9606 187.398 98.0745 187.081ZM113.457 48.2376C112.407 48.767 114.997 48.9598 115.431 48.6071C115.652 48.4249 113.924 48.0005 113.457 48.2376ZM131.101 49.4832C132.355 49.4765 133.816 47.8904 132.226 48.0315C132.053 48.0464 130.968 49.2372 131.101 49.4832ZM56.1401 76.4768C57.377 75.9643 56.4809 75.2752 55.9136 75.9599C55.7149 76.2025 56.1013 76.4931 56.1401 76.4768ZM97.9703 51.8591C98.1113 51.8598 99.6185 51.4043 99.5019 51.1676C98.8961 51.1507 97.0469 51.8212 97.9703 51.8591ZM56.0202 76.8711C56.3218 76.1935 54.893 76.6151 54.9815 77.7981C55.2017 77.4107 55.9894 76.9388 56.0202 76.8711ZM81.244 175.264C80.4063 175.266 78.9472 174 78.0344 173.394C78.3275 172.833 80.5351 174.908 81.244 175.264ZM125.747 48.6251C126.966 48.2055 124.356 47.8504 124.596 48.416C124.631 48.4449 125.701 48.6416 125.747 48.6251ZM43.7696 111.707C43.4029 110.907 42.9376 113.441 43.5668 112.738C43.5902 112.703 43.7878 111.75 43.7696 111.707ZM44.5943 122.678C44.5865 122.059 44.1599 119.515 43.9616 120.558C43.9223 120.717 44.2515 122.695 44.5943 122.678ZM148.182 187.987C147.713 187.429 149.563 187.219 149.858 187.258C149.98 187.28 148.807 188.719 148.182 187.987ZM61.6686 70.8758C62.082 70.3849 63.4289 69.4088 63.4488 68.9738C62.8843 69.5254 61.0737 70.5372 61.6686 70.8758ZM120.187 48.7578C121.292 49.3706 123.081 49.257 122.614 48.3914C120.606 48.5168 122.897 49.1573 120.187 48.7578ZM54.193 80.4155C54.5145 80.0553 54.0592 79.255 53.9948 79.2748C53.3702 79.481 53.6455 80.618 54.193 80.4155ZM84.4668 56.773C84.6338 57.0896 86.2055 56.2713 85.9026 56.1459C85.8007 56.0996 84.3284 56.5117 84.4668 56.773ZM63.9301 159.4C63.6476 158.574 65.544 160.198 65.7585 160.997C65.5743 161.649 63.9602 159.506 63.9301 159.4ZM47.746 91.9537C48.2106 92.2047 48.8222 89.8928 48.0588 90.5893C47.8631 90.7636 47.5848 91.8658 47.746 91.9537ZM44.966 115.001C44.1701 113.368 44.3407 120.386 44.9737 118.469C44.9929 118.324 45.0071 115.142 44.966 115.001ZM46.3311 126.303C46.331 126.005 48.1233 125.715 47.7512 127.025C47.704 127.199 47.0481 126.615 46.9749 126.765C46.9195 126.851 47.4008 129.438 47.4916 129.542C47.5769 129.652 48.0896 129.337 48.1917 129.443C48.3016 129.561 48.3125 131.247 48.6033 132.055C49.1449 133.572 49.6792 133.558 49.7253 133.68C49.8679 134.035 49.7848 134.762 50.0914 135.486C51.5866 139.164 54.9208 144.353 55.8638 147.64C54.6372 144.968 52.8869 142.815 51.4761 140.325C52.7469 140.631 48.9494 136.901 51.2759 139.038C50.219 138.001 46.1018 127.312 46.3319 126.306C46.3317 126.305 46.3314 126.304 46.3311 126.303ZM135.662 50.4034C134.934 50.9095 138.28 51.2701 138.713 50.6609C138.279 50.4589 135.748 50.3297 135.662 50.4034ZM117.762 51.5989C117.399 51.7357 117.145 52.9449 115.176 52.5267C115.174 52.5269 115.172 52.527 115.17 52.5272C114.59 52.4079 115.201 52.0515 115.088 51.9584C115.05 51.9171 113.211 51.5153 114.675 51.2616C116.907 50.8922 114.976 52.1256 116.166 52.0256C116.301 52.0079 118.521 51.183 118.379 51.0551C118.364 51.0389 117.692 51.2252 117.575 51.1754C117.131 50.9864 117.309 50.597 117.247 50.5838C117.031 50.5404 113.518 51.5249 112.923 51.0518C112.728 50.8571 118.628 49.881 118.869 50.0008C119.018 50.0504 119.022 51.0922 119.178 51.1851C119.252 51.2251 121.601 50.7182 121.911 50.8106C122.001 50.8351 122.07 50.8627 122.121 50.8857C121.755 50.5717 123.885 50.5402 123.827 50.9094C123.789 51.0501 122.333 51.001 122.277 50.9804C122.254 50.9705 122.233 50.9566 122.214 50.9472C122.531 51.3034 117.566 51.5516 118.677 52.0803C117.266 52.4996 118.823 51.2099 117.762 51.5989ZM110.926 52.9861C111.059 52.8569 111.191 52.7279 111.325 52.5992C108.848 53.2082 105.882 53.185 103.019 53.8157C102.294 53.9759 103.271 54.4434 102.285 54.4773C101.498 54.5048 100.517 54.1049 100.896 53.8713C100.989 53.8113 102.627 53.8447 103.396 53.6412C105.667 53.04 104.98 52.608 105.111 52.5626C105.255 52.5157 106.796 52.6334 107.588 52.4816C109.579 52.1004 110.471 51.5968 113.281 51.7173C111.735 52.288 112.714 52.9879 110.926 52.9861ZM46.672 102.092C46.8828 102.182 46.7513 102.735 46.6211 103.281C46.5393 103.624 46.4579 103.958 46.451 104.164C46.2739 104.096 46.3194 103.697 46.4172 103.25C46.5111 102.819 46.6537 102.352 46.672 102.092ZM192.208 139.94C192.66 140.561 193.604 137.043 192.928 137.873C192.785 138.055 192.324 139.505 192.208 139.94ZM194.702 123.91C194.608 123.619 194.396 124.228 194.351 124.723C194.324 125.04 194.358 125.315 194.524 125.324C194.587 125.326 194.636 125.053 194.667 124.74C194.706 124.37 194.713 123.943 194.702 123.91ZM79.9752 61.8612C79.8991 61.9172 78.6415 62.4162 78.5916 62.4113C77.4964 62.2576 81.6425 60.563 79.9752 61.8612ZM191.596 105.372C192.42 106.848 191.2 102.068 191.155 103.65C191.158 103.727 191.561 105.3 191.596 105.372ZM189.339 98.9122C189.506 99.2726 189.922 100.974 190.095 100.939C190.387 100.881 189.882 98.9237 189.339 98.9122ZM55.8303 81.975C56.4668 82.2189 54.8723 83.6395 54.566 84.3069C53.9037 84.0908 55.4671 82.6105 55.8303 81.975ZM65.35 72.3122C59.0272 78.9935 59.3588 76.5486 65.5626 71.7024C65.8486 72.022 65.7753 71.9028 65.35 72.3122ZM57.3013 80.6748C57.1551 80.1592 57.8843 79.4355 58.3515 78.9294C58.4978 79.2125 57.5326 80.2372 57.3013 80.6748ZM190.224 143.797C189.922 143.065 191.259 140.624 191.335 141.144C191.366 141.27 190.44 144.108 190.224 143.797ZM79.4828 62.7533C79.9779 63.2162 77.2289 64.3839 76.967 64.3822C75.8736 64.3202 79.3212 62.9743 79.4828 62.7533ZM50.5395 93.115C50.8476 93.7306 50.1747 94.8397 49.9171 95.6444C49.6147 95.1394 50.2706 93.7828 50.5395 93.115ZM53.3694 87.8131C53.358 87.869 52.7919 88.8719 52.7509 88.9094C51.8715 89.5355 53.492 86.6644 53.3694 87.8131ZM143.087 183.932C143.124 183.913 144.027 183.858 144.062 183.872C144.967 184.292 142.233 184.46 143.087 183.932Z" fill="black"/>
</svg>
