<svg width="1002" height="69" viewBox="0 0 1002 69" fill="none" xmlns="http://www.w3.org/2000/svg">
<path d="M1001.43 22.031C1000.94 20.5477 999.953 19.5589 998.475 19.0645C991.576 16.5924 984.186 16.5924 977.288 15.6036C973.346 15.1092 969.897 15.1092 965.955 14.1204C963.491 13.626 960.535 13.1316 957.579 13.1316C955.115 13.1316 952.651 12.1428 950.188 12.1428C949.695 12.1428 948.71 11.6483 948.217 12.1428C944.768 13.1316 941.812 12.1427 938.855 11.6483C935.899 11.1539 933.435 11.1539 930.972 10.6595C928.015 12.1427 925.552 9.67066 923.088 10.1651C920.132 10.6595 916.683 9.17629 913.726 9.6707C910.277 10.1651 906.828 8.18747 903.379 9.6707C902.886 9.6707 901.408 9.17627 900.423 9.17627C898.452 9.17627 895.988 8.68187 894.018 8.18746C891.061 7.69305 887.612 6.7042 884.656 7.69303C881.207 8.68185 878.25 7.19863 875.294 6.70422L870.367 7.19865C869.874 7.19865 868.889 7.69306 868.396 7.19865C864.454 5.71542 861.005 6.70422 857.063 6.70422C855.585 6.20981 853.614 6.70425 852.136 6.20984C844.745 3.73779 837.354 5.22097 829.964 5.22097C826.022 5.22097 822.08 4.7266 818.138 4.7266C811.733 4.7266 805.327 3.73773 798.922 3.73773C793.502 3.73773 788.082 3.73774 782.169 2.74892C778.72 2.25451 775.271 2.25455 771.822 2.25455C770.837 2.25455 769.851 2.74896 768.866 2.25455C763.939 1.76014 759.012 2.25453 753.592 1.76011C744.23 0.771294 734.375 2.74893 725.014 0.276871C724.028 0.276871 723.043 0.771305 722.057 0.771305C718.116 0.771305 714.667 1.26568 710.725 1.26568C708.754 1.26568 706.29 -0.217556 703.827 1.26568C701.363 -0.217556 698.899 0.276856 695.943 1.26568C694.465 1.76009 692.987 1.76009 691.509 1.26568C687.567 -0.217556 684.118 -0.217519 680.176 0.771305C678.205 1.26572 675.741 -0.217556 673.278 1.26568C669.829 -0.217556 665.394 1.26572 661.453 0.771305C657.511 0.276893 653.569 -0.217556 649.627 1.26568C646.178 -0.217556 641.744 0.276871 637.802 0.276871C636.324 0.771282 634.846 0.771305 633.367 0.771305C632.382 0.771305 630.904 1.76009 629.918 1.26568C627.947 0.276856 625.484 0.771305 623.02 0.771305C621.049 0.771305 618.586 0.276871 616.122 0.276871C612.18 0.276871 608.731 0.771282 604.789 0.276871C601.34 -0.217541 597.891 1.26569 594.442 0.276871C590.993 -0.711949 587.051 1.26568 583.602 1.26568C571.777 1.26568 560.444 1.26571 549.112 1.76011C546.155 0.276882 543.199 1.76011 540.243 1.76011C537.286 1.76011 534.33 0.771294 531.374 1.76011C529.896 2.25453 527.925 2.25455 525.954 2.25455C519.548 2.25455 512.65 2.74896 506.245 2.25455C502.796 3.73778 498.854 3.24336 494.912 3.24336C487.029 3.24336 478.652 2.74891 470.276 3.73773C465.349 4.23214 460.914 4.7266 455.987 4.7266H444.655C440.713 4.7266 436.771 4.23215 432.829 5.22097C428.888 6.2098 425.438 4.72656 421.989 5.22097C417.555 5.71538 413.12 5.22102 409.179 6.20984C405.237 7.19866 400.802 5.22097 396.861 7.69303H395.382C390.455 5.71538 385.528 6.70422 381.093 6.70422C376.166 6.70422 371.239 6.70423 366.804 8.18746C365.326 8.68187 364.341 8.68187 362.863 8.18746C361.877 7.69305 360.399 7.69305 358.921 8.18746C354.979 8.18746 351.037 7.19862 347.096 9.17627C343.154 8.18745 339.212 8.68186 335.27 9.17627C331.328 9.67068 327.879 9.6707 323.938 9.6707C319.996 9.6707 316.054 9.67069 312.112 10.6595C308.171 9.67069 304.721 12.1427 301.272 10.1651C297.331 11.6483 293.882 10.1651 289.94 11.1539C285.013 12.1428 280.085 12.6372 275.158 12.1428C271.709 11.6483 268.753 12.6372 265.796 13.1316C262.84 13.626 260.376 13.626 257.913 13.626C254.956 13.626 252 12.6372 249.044 13.626C243.624 15.6036 237.711 13.626 231.799 15.6036C226.379 14.1204 220.959 16.5924 215.539 16.5924C213.075 16.5924 210.119 16.098 207.655 17.0869C204.206 18.5701 200.264 18.0757 196.323 18.0757C194.352 17.5813 191.888 17.5813 189.424 18.5701C186.961 19.5589 184.004 20.5477 181.048 19.5589C179.57 19.0645 178.092 19.5589 176.121 20.0533C173.165 20.0533 170.208 20.5477 166.759 20.5477C163.803 20.5477 160.847 23.0198 157.397 21.5365C156.412 21.0421 155.427 22.0309 155.427 23.0198C154.934 24.503 154.441 25.9863 152.963 23.5142C152.47 22.5254 150.992 22.5254 149.514 22.5254C147.543 22.5254 146.065 23.5142 144.094 23.0198C142.616 22.5254 140.645 24.503 138.674 23.5142C137.689 23.0198 137.689 24.503 137.196 24.9974C137.196 26.4807 136.703 26.9751 135.225 25.9863C131.283 24.503 127.834 24.0086 124.385 27.4695C123.4 28.4583 123.4 27.9639 122.907 26.9751C122.907 25.9862 123.4 24.9974 121.429 24.9974C117.487 25.9863 113.545 27.4695 109.603 27.4695C105.169 27.4695 101.227 28.4583 97.2853 28.9527C88.909 29.9415 80.5327 29.9415 71.6637 31.9192C66.7365 32.908 61.3166 33.4024 56.3893 34.8857C54.9112 35.3801 53.433 35.38 52.4476 35.38C50.4767 35.38 48.0131 36.8633 46.0422 36.3689C43.5786 35.8745 41.6077 36.8633 39.1441 37.8521C37.6659 38.3465 36.1877 38.3465 34.7096 38.8409C28.7969 38.8409 23.3769 40.3242 18.4497 42.7962C17.4643 43.2907 15.9861 43.2906 14.5079 43.785C13.0298 44.7739 12.0443 44.7738 10.0734 44.2794C6.62438 43.2906 3.17532 43.2906 0.218988 45.7627C0.218988 46.2571 -0.273735 46.7515 0.218988 47.2459C0.218988 47.7403 0.711708 47.7403 1.20443 48.2347C2.18988 48.2347 2.6826 48.2348 3.66804 47.7403C4.65349 47.2459 5.63894 46.7515 6.62438 47.2459C11.5516 49.718 16.4788 48.7292 21.4061 47.7403C23.8697 47.2459 25.8406 48.2347 27.8114 46.2571C29.2896 44.7739 31.2605 44.7739 32.7387 44.7739C35.2023 44.7739 37.1732 44.2794 39.1441 44.2794C43.0858 44.2794 46.0422 42.7962 48.9985 39.8298C49.984 38.3465 51.9548 38.3465 53.433 39.3353C56.3893 42.3018 59.3457 41.8074 63.2875 41.8074C66.2438 41.8074 69.2001 40.8186 72.6492 40.8186C73.6346 40.8186 74.6201 41.313 75.6055 40.3241C78.0691 37.8521 82.5036 38.8409 85.46 37.3577C86.4454 36.8633 87.4309 37.3577 88.4163 37.3577C89.8945 37.8521 91.3726 37.8521 92.3581 37.8521C99.7489 37.8521 107.14 36.3688 114.531 35.38L116.009 34.3912C116.994 32.4136 117.98 33.4024 119.951 33.4024C121.921 33.4024 124.878 33.8968 126.849 33.4024C130.79 32.4136 134.732 30.9303 139.167 31.9192C142.616 29.9415 146.065 30.9303 149.514 30.4359H163.31C164.788 30.4359 166.759 30.9303 168.237 28.9527C168.237 27.9639 168.73 27.9639 169.223 28.4583C170.701 31.4248 173.657 30.436 175.628 29.9415C179.57 28.9527 183.019 28.4583 186.961 26.4806C187.946 25.9862 188.439 26.9751 188.932 27.4695C189.917 28.4583 190.41 28.4583 190.903 28.4583C194.844 26.9751 198.786 27.4695 202.728 26.9751C207.162 26.4807 211.104 26.9751 215.539 26.9751C217.51 26.9751 219.48 27.4695 220.959 26.9751C225.886 25.4918 230.32 25.4918 235.248 25.4918C239.189 25.4918 242.146 25.9862 246.087 24.0086C247.073 23.5142 248.551 24.0086 249.537 24.0086C258.406 24.0086 267.275 24.503 275.651 22.5254H278.114C281.563 22.5254 284.52 22.5254 287.969 22.031C291.418 21.5365 294.374 22.5254 297.823 22.5254C299.794 22.031 301.765 22.5253 303.243 21.5365C305.707 20.0533 307.678 22.5253 309.649 21.5365C313.098 19.5589 316.054 20.5477 319.503 20.5477C323.938 20.5477 328.372 21.0421 332.314 20.5477C338.227 19.5589 344.139 19.0645 349.559 19.0645C351.037 19.0645 352.516 19.5589 353.501 19.0645C355.965 18.0757 357.935 18.0757 359.906 18.5701C361.877 19.0645 363.848 17.5813 366.312 18.5701C368.283 19.5589 370.746 18.0757 373.21 18.5701C375.181 19.0645 377.152 19.5589 379.615 18.5701C381.586 17.5813 384.05 18.5701 386.513 18.0757C388.977 17.5813 391.441 17.0869 394.397 17.0869C397.353 17.0869 399.817 17.5813 402.773 17.5813C405.73 17.5813 408.193 16.5924 410.657 17.0869C413.613 17.5813 416.569 17.5813 419.526 17.5813C423.96 17.5813 428.888 18.5701 432.829 16.5924C433.815 16.098 434.8 16.5924 435.786 16.5924C440.22 17.5812 444.162 18.0757 448.596 16.5924C452.045 15.6036 455.495 14.1204 458.944 16.098C467.32 16.098 476.189 15.6036 485.058 15.6036C488.014 14.6148 491.463 15.1092 494.42 15.1092C496.39 15.1092 497.869 16.098 499.84 14.6148C504.767 15.6036 509.201 14.1204 514.128 14.1204C520.534 14.1204 527.432 15.1092 534.33 13.626H535.808C539.257 15.1092 542.214 14.1204 545.663 13.626C546.648 13.1316 547.141 13.626 548.126 13.626C553.546 15.1092 558.966 15.6036 564.879 13.626C566.357 13.1316 567.835 13.1316 569.313 13.626C571.777 14.6148 574.241 14.6148 576.704 13.626C578.675 12.6372 580.646 12.6372 582.617 13.626C583.602 14.1204 585.081 14.1204 586.066 14.1204H602.326C604.297 14.6148 606.76 14.6148 608.731 14.1204C613.658 13.1315 618.093 14.1204 623.02 14.1204C624.991 14.1204 627.455 14.6148 629.918 13.1316C632.382 11.6483 634.353 11.1539 636.816 13.626C637.802 14.1204 639.28 14.1204 640.758 14.1204C645.193 14.1204 649.627 14.6148 654.062 13.626C658.003 15.1092 662.438 14.1204 666.38 14.1204C670.322 14.1204 674.263 14.6148 678.205 14.1204C682.147 13.626 686.089 14.1204 690.03 14.1204C698.407 14.1204 706.783 13.6259 714.667 15.1092C715.159 15.6036 716.145 15.6036 716.637 15.1092C719.594 14.1204 722.55 15.1092 725.999 15.6036C731.912 16.5924 738.317 16.098 744.723 14.1204C746.201 13.626 747.679 13.626 749.157 14.1204C753.592 15.6036 758.026 16.098 762.461 16.098C767.388 16.098 771.822 16.5924 776.257 16.5924C779.213 16.5924 782.169 17.0869 784.633 17.0869C788.082 17.0869 791.039 17.5812 794.488 16.5924C797.444 15.6036 800.4 17.5813 803.849 17.5813H806.806C811.733 16.5925 815.675 18.0757 820.109 18.0757C820.602 18.0757 820.602 18.5701 821.095 18.5701V19.0645C821.587 20.0533 821.095 20.5477 820.602 20.5477C819.616 20.5477 818.631 21.0421 818.138 20.5477C816.167 18.5701 812.718 19.5589 809.762 20.5477C808.284 21.0421 806.806 21.0422 805.327 21.0422H785.126C783.155 21.0422 781.184 21.5365 779.706 22.031C777.242 23.0198 775.764 20.0533 773.3 21.0422C771.822 21.5366 770.344 21.0421 768.866 21.5365C767.388 22.0309 766.402 22.031 764.924 22.031C762.953 22.031 761.475 22.5253 759.504 21.5365C757.533 20.5477 755.562 22.5253 753.592 21.5365H736.839C734.868 21.5365 733.39 22.5254 731.912 22.031C727.97 20.5477 724.028 23.5142 720.579 21.5365C716.145 23.0198 712.203 22.5254 707.768 22.5254H695.943C692.001 22.5254 688.06 23.0198 684.118 23.0198C679.683 23.0198 675.741 24.503 671.307 23.0198C670.814 22.5254 669.829 23.0198 668.843 23.5142C666.872 23.5142 664.409 24.0086 661.945 24.0086C653.076 24.0086 643.714 24.0086 634.846 24.9974C629.426 25.4919 623.513 25.4918 618.093 25.4918C613.658 25.4918 608.731 26.4806 604.297 28.9527C603.804 29.4471 602.819 29.4471 602.326 29.9415C601.34 26.9751 598.877 28.9527 597.399 28.4583C593.95 27.4695 590.5 27.4695 586.559 28.4583C585.573 28.4583 584.588 28.9527 583.602 28.4583C581.631 27.4695 579.661 28.4583 578.182 28.4583C574.241 28.4583 570.299 29.4471 566.357 28.9527C563.401 28.4583 560.444 29.4471 557.981 30.9304C556.503 31.4248 555.517 31.4248 554.039 30.9304C552.561 30.9304 551.083 31.4248 549.112 31.4248C548.126 31.4248 546.648 31.9192 545.17 31.9192C542.214 30.9303 539.257 32.4136 536.301 32.908C534.33 33.4024 532.852 33.8968 531.374 33.4024C529.896 32.908 528.91 33.8968 529.403 35.38C529.896 40.8185 533.837 43.2906 538.272 40.3241C539.75 39.3353 540.736 39.3353 541.721 39.8298C544.677 40.3242 546.648 41.8074 549.605 40.3241C550.59 39.8297 552.068 39.8298 553.546 39.8298C556.995 39.8298 559.952 39.8297 562.908 39.3353C566.357 38.8409 569.313 38.3465 572.762 38.3465H582.124C583.602 38.3465 585.573 38.3465 587.544 37.8521C590.5 36.8633 593.95 35.8744 597.399 36.8633C598.877 37.3577 600.355 36.8633 601.34 36.3689C603.311 35.3801 605.282 36.8633 606.76 36.3689C609.224 34.8857 610.702 36.3689 613.166 36.8633C616.122 37.3577 619.571 37.3577 622.527 36.3689C623.02 35.8745 624.006 35.3801 624.498 35.8745C626.962 36.8633 628.44 35.3801 629.918 34.8857C631.889 34.3912 634.353 35.38 635.338 32.908C635.831 32.4136 636.324 32.4136 636.816 32.4136C639.28 32.4136 641.251 34.3912 643.714 32.908H644.207C645.685 35.8744 648.642 34.8856 650.613 35.38C653.076 35.38 655.047 34.8856 657.018 35.38C659.482 35.38 661.945 35.3801 662.931 33.4024C663.423 32.4136 664.409 32.908 664.902 33.4024C666.38 34.8856 667.858 34.3912 669.336 34.3912C670.814 34.3912 672.292 33.8968 674.263 33.8968C676.727 33.8968 679.683 34.3912 682.147 33.4024C685.103 32.4136 687.567 33.8968 690.523 33.8968H692.987C697.914 33.8968 702.349 33.8968 707.276 32.908C712.203 31.9192 717.13 33.8968 722.057 32.4136C723.536 31.9192 725.506 31.9192 726.985 32.908C728.955 33.8968 730.926 33.4024 732.897 32.908C740.781 30.9303 748.664 32.4136 756.055 31.9192C761.475 31.4248 767.388 31.9192 772.808 31.9192C775.764 32.4136 777.735 30.4359 778.72 27.9639C782.169 31.9192 782.169 32.4136 786.111 31.9192C789.56 31.4248 793.502 31.9192 796.951 30.9304H800.4C802.864 32.4136 805.82 31.9192 808.777 31.9192C814.196 31.9192 819.616 31.4248 825.036 32.4136C827.993 32.908 830.949 31.4248 834.398 31.4248C834.891 31.4248 835.384 30.436 835.876 29.9415C837.354 26.9751 837.354 28.9527 837.354 29.9415C837.847 31.4248 838.833 31.9192 839.818 31.9192C841.789 31.9192 844.253 30.9303 845.731 31.9192C847.702 33.4024 850.658 30.9304 853.122 31.4248C855.585 31.9192 858.049 32.4136 860.512 33.4024H862.976C867.903 33.4024 872.338 33.4024 877.265 33.4024H884.163C885.641 33.4024 886.627 32.908 888.105 33.4024C892.539 33.8968 896.974 33.4024 901.408 32.908C904.365 32.4136 907.321 32.4136 910.277 33.4024C911.755 33.8968 913.726 32.908 915.697 32.908C916.19 32.908 916.683 32.4136 917.668 32.908C921.117 34.3912 924.566 33.8968 928.015 32.908L933.928 31.4248C936.392 30.9304 937.377 34.3912 939.841 33.4024C941.319 32.908 942.304 33.4024 943.782 33.8968H951.666C954.13 33.8968 956.101 32.4136 958.564 33.4024C961.028 34.3912 963.984 34.3912 966.448 34.3912H968.911C969.897 34.3912 970.882 34.3913 971.375 33.8968C973.346 31.9192 975.317 33.4024 977.78 33.4024H997.982C999.46 33.4024 1000.94 32.4136 1001.43 30.4359C1001.92 27.9639 1002.42 24.9974 1001.43 22.031ZM524.476 32.908C522.012 32.908 520.041 32.4136 518.07 34.3912C517.578 34.8856 516.592 34.8856 516.592 34.3912C514.621 33.4024 512.158 33.8968 510.187 33.8968C499.84 33.8968 489.985 36.3688 479.638 35.38C479.638 35.38 479.145 35.3801 479.145 35.8745C476.682 37.3577 473.725 36.8633 471.262 36.8633C469.783 36.8633 468.305 36.8633 467.32 37.3577C464.364 38.8409 460.914 38.8409 457.958 38.3465C455.002 37.8521 453.031 39.8297 450.075 40.8186C449.582 40.8186 449.089 41.8074 449.089 42.3018C448.596 42.7962 448.596 43.785 448.596 43.785C448.104 44.2795 447.611 44.7739 447.118 44.7739C446.133 44.2794 446.133 43.2907 446.133 42.7962C446.133 42.3018 446.625 41.8074 447.118 41.313C447.611 39.8298 447.118 39.3353 445.64 39.3353C444.162 39.8297 442.191 40.3241 440.713 40.3241C436.771 39.3353 432.337 40.3241 428.395 40.3241C425.931 40.3241 423.96 40.3242 421.989 40.8186C420.018 41.313 418.048 42.7962 416.077 42.3018H409.671C406.715 42.7962 403.759 42.3018 400.802 43.2906C398.831 43.785 396.861 44.7738 394.89 44.2794C391.933 43.785 389.962 44.2795 387.499 45.2683C385.035 46.2571 383.064 46.7515 380.108 45.7627C378.63 45.2683 376.166 45.2683 375.673 46.2571C373.703 48.2347 371.732 47.2459 369.761 47.2459H363.355C360.892 47.2459 358.921 48.2347 356.457 48.2347C353.501 48.2347 350.545 48.2347 348.574 49.2235C346.11 50.2123 343.647 48.7291 341.183 49.718C336.748 51.2012 331.821 51.2012 327.387 51.6956C321.474 52.19 316.547 52.6845 312.605 56.6397C312.605 57.1342 311.62 56.6397 311.127 56.6397C311.127 56.1453 311.127 55.6509 311.62 55.1565C311.62 53.6733 311.127 53.1788 310.141 53.6733L305.707 55.1565C305.214 55.1565 304.721 56.1453 305.214 56.6397C305.214 57.1342 305.707 57.1341 306.2 57.1341C307.185 56.6397 308.171 56.1453 308.663 57.1341C308.663 57.6285 308.171 58.6174 307.678 59.1118C307.185 59.6062 306.2 60.1006 307.185 61.0894C307.678 61.5838 308.171 62.0782 309.156 62.0782C311.127 62.0782 313.59 61.0894 316.054 61.0894C318.518 61.0894 320.489 60.595 321.474 58.6174C321.967 57.6285 323.938 57.6285 324.43 58.6174C325.908 61.0894 327.879 61.0894 329.85 59.6062C332.314 57.6285 334.777 56.1453 337.734 57.6286C338.719 58.123 340.197 57.6285 341.676 57.1341C343.154 56.6397 343.647 55.6509 343.647 53.6733C343.647 53.1788 344.632 52.19 345.125 52.19C346.11 52.19 346.603 53.1788 347.096 53.6733C347.096 54.1677 347.096 54.6621 346.603 55.1565C346.603 57.1341 347.096 57.6286 348.574 57.6286C351.53 57.6286 352.023 57.6286 352.023 55.1565C352.023 53.6733 352.516 52.6844 353.501 53.1788C354.979 53.6732 355.965 54.1677 356.95 55.1565C357.935 55.6509 358.921 56.1453 359.906 56.1453C363.355 56.1453 366.312 56.1453 369.268 55.6509C375.673 54.6621 381.586 52.6844 387.499 52.6844C388.977 52.6844 390.455 51.2012 391.933 52.19C394.89 54.1677 397.353 51.6956 399.817 51.6956C400.802 51.6956 402.28 51.2012 403.266 51.6956C405.73 52.6844 407.7 51.6956 409.671 51.6956C413.12 51.6956 416.077 48.7291 419.526 50.7068C424.946 49.7179 430.858 49.718 436.278 49.718C438.742 49.718 441.206 48.7291 442.684 46.7515C444.162 44.7738 443.669 46.2571 444.655 47.2459C445.147 47.7403 446.133 48.2347 446.625 48.2347L451.553 46.7515H458.451C460.914 46.7515 463.871 45.7627 466.334 46.7515C467.32 46.7515 468.305 46.7515 469.291 46.2571C474.218 45.7627 478.652 43.785 483.58 44.2794L484.565 43.2906C485.058 42.7962 485.058 42.3018 485.551 43.2906C486.536 43.785 487.029 44.7739 488.507 44.7739C490.971 44.7739 493.434 43.785 495.898 44.2794C496.39 44.7738 496.883 43.785 496.39 43.2906C496.39 42.7962 496.39 41.8074 496.883 42.3018C500.825 43.785 504.767 42.7962 508.709 42.7962H521.519C523.49 42.7962 523.49 41.8074 523.49 39.8298C522.997 38.3465 522.997 37.8521 524.968 37.8521C525.954 37.8521 525.954 37.3577 526.447 36.3689C526.939 35.3801 528.91 34.3912 527.432 32.908C526.447 31.9192 525.461 32.908 524.476 32.908ZM301.765 56.6397H296.838C294.374 56.1453 291.911 58.123 289.447 57.6286C285.013 56.6397 282.056 58.6173 278.607 59.6062C277.129 60.1006 277.129 61.5838 277.129 63.067V64.0559C280.578 64.5503 284.52 64.5503 287.969 64.5503C289.447 64.5503 290.925 64.0558 291.418 63.067C292.403 61.5838 293.389 60.1006 294.374 59.1118C295.852 57.6286 297.823 60.1006 299.794 59.1118C300.287 58.6174 301.272 59.1118 301.765 59.1118C302.258 59.1118 302.751 58.123 302.751 57.6286C302.258 57.6286 302.258 56.6397 301.765 56.6397ZM274.665 60.1006C273.68 59.6062 272.694 59.6062 271.709 59.6062C269.245 59.6062 266.782 59.6062 264.811 61.5838C263.825 62.5727 261.855 63.067 260.376 62.0782C258.406 61.0894 256.435 61.5838 254.464 63.067C252.493 64.5503 252.493 65.0447 249.537 68.0112C249.044 68.5056 249.044 68.5056 249.537 69C251.015 69 252.493 69 253.478 68.0112C255.449 66.0335 257.913 65.5391 260.869 66.0335C265.796 67.0223 271.216 65.5391 276.144 65.5391C276.636 65.5391 276.636 64.5503 277.129 64.5503L275.651 63.067C275.158 62.0782 275.651 60.595 274.665 60.1006Z" fill="black"/>
</svg>
