<svg width="1010" height="182" viewBox="0 0 1010 182" fill="none" xmlns="http://www.w3.org/2000/svg">
<path d="M450.82 132L476.66 95.2227L452.598 59.8125H474.609L480.967 69.9297C483.428 74.0996 485.684 77.9961 487.939 81.8926C490.195 77.9961 492.451 74.0996 495.049 69.9297L501.543 59.8125H523.213L498.877 94.7441L524.375 132H502.295L495.049 120.926C492.451 116.551 490.059 112.586 487.734 108.553C485.273 112.586 482.881 116.551 480.215 120.926L472.832 132H450.82Z" fill="white"/>
<path d="M575.85 59.8125V75.6035H561.084V109.715C561.084 114.637 562.656 116.209 568.125 116.209H575.85V132H564.092C548.232 132 540.918 125.984 540.918 112.859V75.6035H528.477V59.8125H540.918V40.125H561.084V59.8125H575.85Z" fill="white"/>
<path d="M586.035 132V59.8125H605.449V72.1172H605.654C608.32 63.4355 613.789 59.334 623.291 59.334C625.615 59.334 627.598 59.4023 629.238 59.4707V76.6289C627.734 76.5605 623.975 76.2871 620.557 76.2871C612.285 76.2871 606.201 82.0293 606.201 92.8984V132H586.035Z" fill="white"/>
<path d="M659.385 133.23C644.961 133.23 634.57 126.053 634.57 111.629C634.57 95.3594 647.695 90.7109 662.734 89.3438C675.928 88.0449 680.576 87.4297 680.576 82.7812V82.3027C680.576 76.9707 676.133 73.2793 668.75 73.2793C661.23 73.2793 656.309 77.1074 655.83 82.6445H636.895C637.783 67.7422 649.541 58.3086 669.365 58.3086C689.121 58.3086 700.469 67.6055 700.469 83.0547V132H680.781V121.814H680.508C676.68 128.855 670.459 133.23 659.385 133.23ZM664.99 119.217C674.697 119.217 680.713 113.406 680.713 105.613V98.3672C678.389 99.666 672.715 100.623 666.221 101.648C659.316 102.674 653.848 105.34 653.848 111.082C653.848 116.209 658.223 119.217 664.99 119.217Z" fill="white"/>
<path d="M716.191 160.574V59.8125H727.539V70.4766H727.676C732.324 62.4102 741.143 58.4453 750.508 58.4453C769.307 58.4453 781.816 73.6211 781.816 95.9062C781.816 118.123 769.307 133.367 750.508 133.367C741.143 133.367 733.145 129.402 727.949 121.062H727.812V160.574H716.191ZM748.73 122.908C761.24 122.908 770.059 113.611 770.059 95.9062C770.059 78.2012 761.24 68.8359 748.73 68.8359C735.332 68.8359 726.855 79.5684 726.855 95.9062C726.855 112.244 735.332 122.908 748.73 122.908Z" fill="white"/>
<path d="M825.156 133.641C805.127 133.641 791.66 118.055 791.66 96.043C791.66 73.8945 805.127 58.1719 825.156 58.1719C845.186 58.1719 858.652 73.8945 858.652 96.043C858.652 118.055 845.186 133.641 825.156 133.641ZM825.156 123.113C838.828 123.113 846.895 112.381 846.895 96.043C846.895 79.5684 838.76 68.6992 825.156 68.6992C811.553 68.6992 803.418 79.5 803.418 96.043C803.418 112.449 811.484 123.113 825.156 123.113Z" fill="white"/>
<path d="M872.188 132V59.8125H883.809V132H872.188ZM877.998 45.7305C873.623 45.7305 870.068 42.1758 870.068 37.8008C870.068 33.4258 873.623 29.8711 877.998 29.8711C882.373 29.8711 885.928 33.4258 885.928 37.8008C885.928 42.1758 882.373 45.7305 877.998 45.7305Z" fill="white"/>
<path d="M912.656 89.7539V132H901.035V59.8125H912.383V70.4082C917.373 62.2051 924.688 58.4453 933.848 58.4453C948.408 58.4453 960.371 67.9473 960.371 87.1562V132H948.75V87.9766C948.75 75.4668 942.461 69.1094 931.66 69.1094C921.133 69.1094 912.656 75.1934 912.656 89.7539Z" fill="white"/>
<path d="M1009.11 59.8125V69.793H994.482V114.5C994.482 120.105 996.465 122.02 1002.41 122.02H1009.11V132H1001.32C988.945 132 982.861 126.6 982.861 115.73V69.793H970.01V59.8125H982.861V40.125H994.482V59.8125H1009.11Z" fill="white"/>
<path d="M331 0H190C173.431 0 160 13.4315 160 30V49H321C326.523 49 331 53.4772 331 59V80C331 85.5228 326.523 90 321 90H250H221C209.954 90 201 98.9543 201 110V125.5L250 182L250 145C250 141.686 252.686 139 256 139H331H338C361.196 139 380 120.196 380 97V42C380 18.804 361.196 0 338 0H331Z" fill="url(#paint0_linear_1971_916)"/>
<path d="M228 0L148.6 91L228 182H158.631L113.915 130.78L69.3691 182H0L79.2304 91L0 0H69.3691L113.915 50.96L149.669 10.2133C155.365 3.72185 163.582 0 172.219 0H228Z" fill="url(#paint1_linear_1971_916)"/>
<path fill-rule="evenodd" clip-rule="evenodd" d="M185.246 49H321C326.523 49 331 53.4772 331 59V80C331 85.5229 326.523 90 321 90H221C209.954 90 201 98.9543 201 110V125.5L250 182V145C250 141.686 252.686 139 256 139H338C361.196 139 380 120.196 380 97V42C380 18.804 361.196 0 338 0H228L185.246 49Z" fill="url(#paint2_linear_1971_916)"/>
<defs>
<linearGradient id="paint0_linear_1971_916" x1="224.54" y1="-15.4574" x2="380" y2="138.5" gradientUnits="userSpaceOnUse">
<stop stop-color="#001651"/>
<stop offset="0.105769" stop-color="#002586"/>
<stop offset="0.788462" stop-color="#3997FF"/>
</linearGradient>
<linearGradient id="paint1_linear_1971_916" x1="194.5" y1="-22.5" x2="9.37498" y2="186.873" gradientUnits="userSpaceOnUse">
<stop offset="0.405986" stop-color="#89C2FF"/>
<stop offset="1" stop-color="#002586"/>
</linearGradient>
<linearGradient id="paint2_linear_1971_916" x1="233" y1="-24" x2="390.785" y2="60.5054" gradientUnits="userSpaceOnUse">
<stop stop-color="#001651"/>
<stop offset="0.105769" stop-color="#002586"/>
<stop offset="0.788462" stop-color="#3997FF"/>
</linearGradient>
</defs>
</svg>
