<svg width="32" height="32" viewBox="0 0 32 32" fill="none" xmlns="http://www.w3.org/2000/svg">
<rect width="32" height="32" rx="6" fill="#AAF10A"/>
<path d="M18.7997 9L12.9492 15.7051L18.7997 22.4103H13.6884L10.3936 18.6362L7.11132 22.4103H2L7.83792 15.7051L2 9H7.11132L10.3936 12.7549L13.028 9.75255C13.4477 9.27424 14.0532 9 14.6896 9H18.7997Z" fill="#000946"/>
<path fill-rule="evenodd" clip-rule="evenodd" d="M15.6504 12.6105H25.6531C26.0601 12.6105 26.39 12.9403 26.39 13.3473V14.8946C26.39 15.3016 26.0601 15.6315 25.6531 15.6315H18.2849C17.471 15.6315 16.8112 16.2912 16.8112 17.1051V18.2472L20.4217 22.4103V19.684C20.4217 19.4398 20.6196 19.2419 20.8638 19.2419H26.9057C28.6149 19.2419 30.0004 17.8564 30.0004 16.1472V12.0947C30.0004 10.3855 28.6149 9 26.9057 9H18.8006L15.6504 12.6105Z" fill="#000946"/>
</svg>
