<svg width="500" height="500" viewBox="0 0 500 500" xmlns="http://www.w3.org/2000/svg">
  <style>
    @media (prefers-color-scheme: dark) {
      .a { fill: #2B8FFC; }
    }
  </style>
  <path d="M241.051 33.6366L141.49 90.6175C135.925 93.7997 132.516 99.6669 132.516 105.981V201.497C132.516 207.861 129.107 213.728 123.543 216.861L40.2236 264.643C34.659 267.825 31.25 273.692 31.25 280.007V394.018C31.25 400.383 34.659 406.25 40.2236 409.382L139.785 466.363C145.35 469.546 152.168 469.546 157.682 466.363L241.051 418.631C246.616 415.448 253.434 415.448 258.949 418.631L342.318 466.363C347.882 469.546 354.7 469.546 360.215 466.363L459.776 409.382C465.341 406.2 468.75 400.333 468.75 394.018V280.007C468.75 273.643 465.341 267.775 459.776 264.643L376.407 216.91C370.843 213.728 367.434 207.861 367.434 201.546V106.031C367.434 99.6669 364.025 93.7997 358.46 90.6673L258.949 33.6366C253.384 30.4545 246.566 30.4545 241.051 33.6366ZM359.362 226.656V331.419C359.362 337.783 355.954 343.651 350.389 346.783L258.898 399.14C253.334 402.322 246.516 402.322 241.001 399.14L149.511 346.783C143.946 343.601 140.537 337.734 140.537 331.419V226.656C140.537 220.291 143.946 214.424 149.511 211.292L241.001 158.935C246.566 155.753 253.384 155.753 258.898 158.935L350.389 211.292C355.954 214.474 359.362 220.341 359.362 226.656Z" class="a" fill="#03116D"/>
</svg>